<?xml version="1.0" standalone="no"?>
<!DOCTYPE svg PUBLIC "-//W3C//DTD SVG 20010904//EN"
 "http://www.w3.org/TR/2001/REC-SVG-20010904/DTD/svg10.dtd">
<svg version="1.0" xmlns="http://www.w3.org/2000/svg"
 width="1280.000000pt" height="1280.000000pt" viewBox="0 0 1280.000000 1280.000000"
 preserveAspectRatio="xMidYMid meet">
<metadata>
Created by potrace 1.14, written by Peter Selinger 2001-2017
</metadata>
<g transform="translate(0.000000,1280.000000) scale(0.100000,-0.100000)"
fill="#000000" stroke="none">
<path d="M6194 11076 c-49 -51 -150 -157 -224 -235 -74 -79 -171 -180 -215
-226 -123 -128 -346 -363 -414 -435 -34 -35 -61 -68 -61 -72 0 -5 -5 -8 -10
-8 -6 0 -25 -17 -43 -37 -18 -20 -77 -84 -132 -141 -149 -156 -195 -205 -525
-552 -184 -193 -352 -369 -395 -415 -78 -81 -334 -350 -585 -615 -80 -84 -150
-158 -157 -165 -9 -9 1 -25 40 -67 29 -30 79 -85 112 -122 33 -37 85 -94 115
-126 30 -32 89 -96 130 -141 96 -106 98 -108 205 -224 50 -54 97 -106 105
-115 8 -9 58 -63 110 -120 52 -57 104 -113 115 -126 11 -12 54 -59 95 -104 41
-45 89 -96 105 -114 17 -18 68 -74 115 -125 99 -108 118 -128 214 -234 39 -44
87 -96 106 -116 19 -21 62 -67 95 -103 145 -158 212 -232 245 -267 19 -21 69
-76 110 -121 41 -46 91 -100 110 -120 19 -20 69 -74 110 -120 41 -45 91 -100
110 -120 19 -21 64 -70 100 -110 36 -40 85 -93 110 -120 40 -42 92 -99 224
-244 l35 -39 108 110 c59 61 194 200 298 308 105 109 226 235 270 280 44 45
170 176 280 290 110 114 234 242 275 284 41 43 163 169 270 280 107 112 240
250 295 306 55 57 183 190 285 295 102 106 221 229 265 275 44 45 175 180 290
300 116 120 231 240 258 267 26 26 47 52 47 58 0 5 -29 39 -65 76 -36 37 -65
71 -65 76 0 4 -7 8 -15 8 -8 0 -15 4 -15 9 0 4 -37 47 -82 93 -46 47 -141 147
-213 222 -71 76 -168 177 -215 225 -77 79 -282 294 -449 469 -34 37 -139 146
-231 242 -92 96 -196 204 -230 240 -103 108 -361 378 -435 455 -38 40 -133
139 -210 220 -77 81 -176 184 -220 230 -86 88 -334 349 -408 428 -25 26 -47
47 -50 47 -2 0 -44 -42 -93 -94z"/>
<path d="M2825 7654 c-171 -173 -310 -314 -309 -314 4 0 -155 -153 -167 -161
-8 -5 -11 -9 -8 -9 3 0 -186 -194 -421 -430 -234 -237 -424 -433 -421 -435 2
-3 0 -5 -6 -5 -5 0 -66 -57 -134 -126 -68 -69 -350 -353 -626 -632 -277 -279
-502 -510 -500 -514 3 -8 102 -123 141 -163 16 -16 29 -31 27 -33 -1 -1 16
-22 38 -45 22 -23 49 -53 61 -67 70 -82 130 -151 166 -190 22 -25 47 -53 55
-62 8 -10 30 -35 49 -56 19 -21 62 -69 95 -107 33 -38 69 -79 80 -91 71 -78
85 -94 81 -94 -2 0 13 -17 33 -38 20 -21 59 -65 88 -98 28 -32 60 -68 70 -80
10 -11 43 -49 73 -84 30 -35 65 -72 77 -83 13 -12 23 -24 23 -28 0 -4 15 -23
33 -41 17 -19 57 -62 87 -97 52 -60 115 -131 170 -193 14 -15 30 -34 35 -41
46 -54 164 -187 186 -209 15 -14 31 -33 36 -41 4 -8 31 -40 60 -71 29 -31 51
-56 49 -56 -2 0 17 -22 43 -49 25 -27 64 -70 86 -96 21 -25 48 -57 60 -69 31
-36 97 -110 130 -148 42 -48 158 -179 170 -192 6 -6 39 -45 75 -86 74 -85 124
-141 160 -181 14 -15 45 -51 70 -80 25 -29 64 -73 87 -98 23 -26 43 -49 43
-53 0 -5 4 -8 9 -8 5 0 245 235 534 523 2074 2061 2467 2453 2467 2457 0 3
-27 34 -61 70 -33 36 -76 83 -96 105 -19 22 -79 87 -133 145 -86 94 -138 150
-220 240 -14 15 -66 72 -117 126 -50 54 -102 111 -115 125 -12 14 -63 69 -112
123 -49 53 -98 107 -108 119 -24 27 -189 206 -239 259 -20 20 -55 59 -79 85
-63 71 -208 229 -266 289 -28 30 -50 54 -49 54 2 0 -85 95 -170 186 -22 23
-76 82 -120 130 -44 49 -101 110 -126 136 -26 26 -45 48 -42 48 2 0 -20 25
-49 55 -29 30 -82 87 -118 126 -36 39 -81 88 -100 109 -19 21 -64 70 -100 109
-36 39 -81 88 -100 109 -19 21 -78 85 -130 142 -130 143 -186 200 -191 199 -2
0 -144 -142 -314 -315z"/>
<path d="M9411 7868 c-141 -145 -305 -314 -378 -391 -35 -36 -63 -64 -63 -61
0 2 -19 -17 -42 -43 -24 -26 -81 -86 -128 -133 -47 -48 -170 -175 -275 -282
-445 -458 -739 -760 -877 -901 -82 -83 -148 -151 -148 -152 0 -1 -81 -84 -179
-184 -98 -101 -275 -282 -392 -403 -118 -121 -233 -239 -256 -263 -24 -23 -43
-46 -43 -50 0 -6 87 -107 191 -220 15 -16 46 -50 67 -75 22 -25 51 -58 65 -73
14 -16 54 -60 89 -99 35 -40 79 -89 98 -110 19 -20 46 -50 59 -65 26 -31 148
-167 196 -219 17 -18 57 -63 90 -100 33 -37 69 -78 80 -90 11 -12 47 -53 80
-90 33 -37 74 -82 90 -100 17 -17 42 -45 56 -63 15 -17 60 -68 100 -112 41
-45 85 -94 99 -109 130 -146 158 -177 178 -196 12 -12 22 -24 22 -27 0 -3 17
-23 38 -45 20 -21 64 -70 97 -108 33 -37 76 -85 95 -105 19 -20 57 -62 84 -93
27 -31 61 -69 75 -85 14 -15 48 -52 74 -82 26 -30 65 -72 85 -95 20 -22 66
-73 102 -114 36 -41 76 -86 90 -100 14 -14 40 -44 59 -66 31 -36 108 -122 222
-248 26 -28 57 -63 70 -79 69 -79 139 -151 139 -141 0 5 173 185 385 400 211
214 597 604 857 867 260 263 605 612 766 775 161 163 441 447 623 630 181 183
329 335 329 337 0 2 -21 26 -47 54 -27 27 -91 96 -143 152 -52 56 -111 119
-130 139 -19 21 -82 88 -140 150 -58 62 -121 130 -140 150 -19 21 -73 78 -120
129 -47 50 -114 122 -150 160 -59 63 -206 220 -320 342 -44 48 -174 186 -320
343 -41 44 -90 95 -107 113 -18 19 -33 35 -33 37 0 2 -26 30 -57 63 -52 52
-105 109 -368 391 -38 42 -90 97 -115 123 -25 26 -81 86 -125 134 -44 48 -107
115 -140 150 -33 35 -98 104 -145 155 -47 50 -122 130 -167 178 -46 48 -83 90
-83 95 0 20 -26 -1 -119 -95z"/>
</g>
</svg>
