<svg width="335" height="310" viewBox="0 0 335 310" fill="none" xmlns="http://www.w3.org/2000/svg">
<g clip-path="url(#clip0)">
<path d="M27.9088 25.9047H5.90884C5.64362 25.9047 5.38927 26.0021 5.20173 26.1756C5.0142 26.3491 4.90884 26.5845 4.90884 26.8298V28.6802C4.90884 28.9255 5.0142 29.1608 5.20173 29.3343C5.38927 29.5078 5.64362 29.6053 5.90884 29.6053H27.9088C28.1741 29.6053 28.4284 29.5078 28.6159 29.3343C28.8035 29.1608 28.9088 28.9255 28.9088 28.6802V26.8298C28.9088 26.5845 28.8035 26.3491 28.6159 26.1756C28.4284 26.0021 28.1741 25.9047 27.9088 25.9047ZM28.9088 9.25166H18.9088V6.47616H21.4088C21.5414 6.47616 21.6686 6.42743 21.7624 6.34068C21.8562 6.25392 21.9088 6.13626 21.9088 6.01358V3.23808C21.9088 3.1154 21.8562 2.99774 21.7624 2.91099C21.6686 2.82423 21.5414 2.7755 21.4088 2.7755H18.9088V0.462583C18.9088 0.339898 18.8562 0.222239 18.7624 0.135487C18.6686 0.0487363 18.5414 0 18.4088 0L15.4088 0C15.2762 0 15.1491 0.0487363 15.0553 0.135487C14.9615 0.222239 14.9088 0.339898 14.9088 0.462583V2.7755H12.4088C12.2762 2.7755 12.1491 2.82423 12.0553 2.91099C11.9615 2.99774 11.9088 3.1154 11.9088 3.23808V6.01358C11.9088 6.13626 11.9615 6.25392 12.0553 6.34068C12.1491 6.42743 12.2762 6.47616 12.4088 6.47616H14.9088V9.25166H4.90884C4.59528 9.25189 4.28617 9.32032 4.00647 9.45143C3.72676 9.58254 3.4843 9.77266 3.29864 10.0064C3.11299 10.2402 2.98935 10.5111 2.93771 10.7972C2.88606 11.0834 2.90786 11.3767 3.00134 11.6536L7.56884 24.0543H26.2488L30.8163 11.6536C30.9098 11.3767 30.9316 11.0834 30.88 10.7972C30.8283 10.5111 30.7047 10.2402 30.519 10.0064C30.3334 9.77266 30.0909 9.58254 29.8112 9.45143C29.5315 9.32032 29.2224 9.25189 28.9088 9.25166V9.25166Z" fill="white" fill-opacity="0.3"/>
</g>
<path d="M59.9089 3.70066C60.6161 3.70066 61.2944 3.96058 61.7945 4.42326C62.2946 4.88593 62.5755 5.51345 62.5755 6.16777C62.5755 7.16695 61.9089 8.0181 61.0155 8.41284L58.5755 16.2212V22.204H45.2422V16.2212L42.8022 8.41284C41.9089 8.0181 41.2422 7.16695 41.2422 6.16777C41.2422 5.51345 41.5231 4.88593 42.0232 4.42326C42.5233 3.96058 43.2016 3.70066 43.9089 3.70066C44.6161 3.70066 45.2944 3.96058 45.7945 4.42326C46.2946 4.88593 46.5755 5.51345 46.5755 6.16777C46.5755 6.78454 46.3355 7.33964 45.9089 7.77139L49.6422 11.5337L50.3489 6.93257C49.6822 6.48849 49.2422 5.76069 49.2422 4.93421C49.2422 4.27989 49.5231 3.65237 50.0232 3.1897C50.5233 2.72703 51.2016 2.4671 51.9089 2.4671C52.6161 2.4671 53.2944 2.72703 53.7945 3.1897C54.2946 3.65237 54.5755 4.27989 54.5755 4.93421C54.5755 5.76069 54.1355 6.48849 53.4689 6.93257L54.1755 11.5337L57.8689 7.75905C57.4636 7.31365 57.2416 6.74999 57.2422 6.16777C57.2422 5.51345 57.5231 4.88593 58.0232 4.42326C58.5233 3.96058 59.2016 3.70066 59.9089 3.70066V3.70066ZM42.5755 24.6711H61.2422V27.1382H42.5755V24.6711Z" fill="white" fill-opacity="0.3"/>
<g clip-path="url(#clip1)">
<path d="M86.0093 21.55C87.5291 20.7526 87.8503 19.5349 84.5752 18.4394C84.5752 18.4394 82.3543 13.9095 82.2747 12.3406C82.2237 11.3335 82.3048 11.2311 82.3048 11.2311C85.9854 10.7207 84.63 9.35262 83.631 9.23391C85.0055 8.31129 85.9027 6.79916 85.9027 5.08882C85.9027 2.27834 83.4827 0 80.4976 0C77.5125 0 75.0925 2.27834 75.0925 5.08882C75.0925 6.79563 75.9859 8.30504 77.3556 9.22819C75.1892 9.77559 76.5346 11.03 78.5585 11.2196C78.7151 11.2198 78.7015 11.47 78.7015 12.3122C78.7015 13.4611 77.2301 16.7667 76.4068 18.4693C76.4068 18.4693 75.2035 18.6834 74.3469 19.3754C73.5695 20.0032 73.6199 20.882 74.9982 21.5634C72.5002 24.2342 72.9414 27.4801 72.9414 27.4801C74.2114 30.4173 87.5133 30.2082 87.9975 27.4801C87.9892 25.9892 88.0514 23.9753 86.0093 21.55V21.55Z" fill="white" fill-opacity="0.3"/>
</g>
<path d="M99.7055 24.6711H118.372V27.1382H99.7055V24.6711ZM115.706 2.4671V6.16777H113.039V2.4671H110.372V6.16777H107.706V2.4671H105.039V6.16777H102.372V2.4671H99.7055V9.86843H102.372V22.204H115.706V9.86843H118.372V2.4671H115.706Z" fill="white" fill-opacity="0.3"/>
<path d="M154.039 3.70066C154.746 3.70066 155.424 3.96058 155.924 4.42326C156.425 4.88593 156.706 5.51345 156.706 6.16777C156.706 7.16695 156.039 8.0181 155.146 8.41284L152.706 16.2212V22.204H139.372V16.2212L136.932 8.41284C136.039 8.0181 135.372 7.16695 135.372 6.16777C135.372 5.51345 135.653 4.88593 136.153 4.42326C136.653 3.96058 137.332 3.70066 138.039 3.70066C138.746 3.70066 139.424 3.96058 139.924 4.42326C140.425 4.88593 140.706 5.51345 140.706 6.16777C140.706 6.78454 140.466 7.33964 140.039 7.77139L143.772 11.5337L144.479 6.93257C143.812 6.48849 143.372 5.76069 143.372 4.93421C143.372 4.27989 143.653 3.65237 144.153 3.1897C144.653 2.72703 145.332 2.4671 146.039 2.4671C146.746 2.4671 147.424 2.72703 147.924 3.1897C148.425 3.65237 148.706 4.27989 148.706 4.93421C148.706 5.76069 148.266 6.48849 147.599 6.93257L148.306 11.5337L151.999 7.75905C151.594 7.31365 151.372 6.74999 151.372 6.16777C151.372 5.51345 151.653 4.88593 152.153 4.42326C152.653 3.96058 153.332 3.70066 154.039 3.70066V3.70066ZM136.706 24.6711H155.372V27.1382H136.706V24.6711Z" fill="white" fill-opacity="0.3"/>
<g clip-path="url(#clip2)">
<path d="M173.433 28.4558L167.316 7.32335C167.242 7.0686 167.078 6.85138 166.859 6.71948C166.64 6.58758 166.385 6.55181 166.149 6.62003L164.372 7.13452C164.136 7.20275 163.94 7.36938 163.825 7.59777C163.711 7.82615 163.688 8.09758 163.761 8.35233L169.879 29.4848C169.952 29.7395 170.117 29.9568 170.335 30.0887C170.554 30.2206 170.81 30.2563 171.045 30.1881L172.823 29.6736C173.058 29.6054 173.255 29.4388 173.37 29.2104C173.484 28.982 173.507 28.7106 173.433 28.4558ZM189.708 24.786L186.927 15.1803L189.593 14.4086L190.288 16.81C190.325 16.9374 190.407 17.046 190.517 17.1119C190.626 17.1779 190.754 17.1958 190.872 17.1616L193.538 16.3899C193.656 16.3558 193.754 16.2725 193.811 16.1583C193.868 16.0441 193.88 15.9084 193.843 15.781L193.148 13.3796L195.37 12.7365C195.487 12.7024 195.586 12.6191 195.643 12.5049C195.7 12.3907 195.712 12.255 195.675 12.1276L194.841 9.24588C194.804 9.1185 194.722 9.00989 194.612 8.94394C194.503 8.87799 194.375 8.8601 194.257 8.89422L192.036 9.53733L191.341 7.13591C191.304 7.00853 191.221 6.89992 191.112 6.83397C191.003 6.76803 190.875 6.75014 190.757 6.78425L188.091 7.55599C187.973 7.5901 187.875 7.67342 187.818 7.78761C187.76 7.9018 187.749 8.03751 187.786 8.16489L188.481 10.5663L185.815 11.338L183.034 1.73238C182.947 1.43125 182.795 1.15336 182.592 0.921142C182.388 0.688923 182.138 0.508881 181.862 0.395552C181.585 0.282222 181.291 0.238779 181.002 0.268731C180.712 0.298682 180.437 0.401189 180.197 0.567975L169.555 8.4034L174.749 26.3468L187.931 27.2861C188.223 27.2989 188.511 27.2383 188.771 27.1091C189.032 26.9799 189.257 26.7859 189.43 26.5425C189.603 26.2992 189.718 26.0134 189.767 25.7083C189.815 25.4032 189.795 25.0872 189.708 24.786V24.786Z" fill="white" fill-opacity="0.3"/>
</g>
<g clip-path="url(#clip3)">
<path d="M213.139 21.55C214.659 20.7526 214.98 19.5349 211.705 18.4394C211.705 18.4394 209.484 13.9095 209.405 12.3406C209.354 11.3335 209.435 11.2311 209.435 11.2311C213.115 10.7207 211.76 9.35262 210.761 9.23391C212.135 8.31129 213.033 6.79916 213.033 5.08882C213.033 2.27834 210.613 0 207.628 0C204.642 0 202.222 2.27834 202.222 5.08882C202.222 6.79563 203.116 8.30504 204.486 9.22819C202.319 9.77559 203.665 11.03 205.688 11.2196C205.845 11.2198 205.831 11.47 205.831 12.3122C205.831 13.4611 204.36 16.7667 203.537 18.4693C203.537 18.4693 202.334 18.6834 201.477 19.3754C200.699 20.0032 200.75 20.882 202.128 21.5634C199.63 24.2342 200.071 27.4801 200.071 27.4801C201.341 30.4173 214.643 30.2082 215.128 27.4801C215.119 25.9892 215.181 23.9753 213.139 21.55V21.55Z" fill="white" fill-opacity="0.3"/>
</g>
<g clip-path="url(#clip4)">
<path d="M218.541 14.9887L233.839 -0.822488C234.023 -1.0131 234.13 -1.26367 234.136 -1.51909C234.141 -1.77452 234.045 -2.01386 233.869 -2.18447L232.539 -3.47107C232.363 -3.64168 232.121 -3.72959 231.865 -3.71545C231.61 -3.70131 231.363 -3.58629 231.179 -3.39568L215.882 12.4155C215.697 12.6061 215.59 12.8566 215.585 13.1121C215.579 13.3675 215.675 13.6068 215.851 13.7774L217.181 15.064C217.357 15.2347 217.6 15.3226 217.855 15.3084C218.11 15.2943 218.357 15.1793 218.541 14.9887ZM229.814 27.2867L236.768 20.0998L238.762 22.0297L237.024 23.8264C236.932 23.9217 236.878 24.047 236.876 24.1747C236.873 24.3025 236.921 24.4221 237.009 24.5074L239.003 26.4373C239.092 26.5226 239.213 26.5666 239.34 26.5595C239.468 26.5525 239.591 26.4949 239.684 26.3996L241.422 24.6029L243.084 26.2112C243.172 26.2965 243.294 26.3404 243.421 26.3333C243.549 26.3263 243.672 26.2688 243.764 26.1735L245.85 24.0174C245.943 23.9221 245.996 23.7968 245.999 23.6691C246.002 23.5414 245.954 23.4217 245.866 23.3364L244.203 21.7282L245.942 19.9314C246.034 19.8361 246.087 19.7108 246.09 19.5831C246.093 19.4554 246.045 19.3358 245.957 19.2504L243.962 17.3206C243.874 17.2352 243.753 17.1913 243.625 17.1984C243.498 17.2054 243.374 17.2629 243.282 17.3582L241.544 19.155L239.549 17.2251L246.502 10.0382C246.72 9.81268 246.886 9.54295 246.986 9.25076C247.086 8.95858 247.118 8.65212 247.079 8.35614C247.041 8.06016 246.932 7.78295 246.762 7.54687C246.592 7.3108 246.366 7.12249 246.102 6.99713L234.014 1.65713L221.025 15.0822L226.762 26.9874C226.896 27.2472 227.091 27.4668 227.333 27.6287C227.574 27.7905 227.855 27.89 228.152 27.9191C228.449 27.9482 228.755 27.9062 229.043 27.7963C229.332 27.6865 229.596 27.5119 229.814 27.2867V27.2867Z" fill="white" fill-opacity="0.3"/>
</g>
<path d="M259.836 24.6711H278.502V27.1382H259.836V24.6711ZM275.836 2.4671V6.16777H273.169V2.4671H270.502V6.16777H267.836V2.4671H265.169V6.16777H262.502V2.4671H259.836V9.86843H262.502V22.204H275.836V9.86843H278.502V2.4671H275.836Z" fill="white" fill-opacity="0.3"/>
<g clip-path="url(#clip5)">
<path d="M303.269 21.55C304.789 20.7526 305.11 19.5349 301.835 18.4394C301.835 18.4394 299.614 13.9095 299.535 12.3406C299.484 11.3335 299.565 11.2311 299.565 11.2311C303.245 10.7207 301.89 9.35262 300.891 9.23391C302.265 8.31129 303.163 6.79916 303.163 5.08882C303.163 2.27834 300.743 0 297.758 0C294.772 0 292.352 2.27834 292.352 5.08882C292.352 6.79563 293.246 8.30504 294.616 9.22819C292.449 9.77559 293.795 11.03 295.818 11.2196C295.975 11.2198 295.961 11.47 295.961 12.3122C295.961 13.4611 294.49 16.7667 293.667 18.4693C293.667 18.4693 292.464 18.6834 291.607 19.3754C290.829 20.0032 290.88 20.882 292.258 21.5634C289.76 24.2342 290.201 27.4801 290.201 27.4801C291.471 30.4173 304.773 30.2082 305.258 27.4801C305.249 25.9892 305.311 23.9753 303.269 21.55V21.55Z" fill="white" fill-opacity="0.3"/>
</g>
<g clip-path="url(#clip6)">
<path d="M25.2956 61.9419L3.73725 57.8841C3.47736 57.8352 3.20711 57.8838 2.98595 58.0192C2.76479 58.1546 2.61084 58.3658 2.55796 58.6062L2.15922 60.4194C2.10635 60.6599 2.15888 60.9099 2.30526 61.1145C2.45164 61.3191 2.67989 61.4615 2.93978 61.5105L24.4981 65.5683C24.758 65.6172 25.0283 65.5686 25.2494 65.4332C25.4706 65.2978 25.6245 65.0866 25.6774 64.8462L26.0762 63.033C26.129 62.7925 26.0765 62.5425 25.9301 62.3379C25.7837 62.1333 25.5555 61.9909 25.2956 61.9419ZM29.8641 45.8077L20.0649 43.9632L20.663 41.2435L23.1128 41.7046C23.2428 41.729 23.3779 41.7047 23.4885 41.637C23.599 41.5693 23.676 41.4637 23.7025 41.3435L24.3006 38.6237C24.327 38.5035 24.3007 38.3785 24.2275 38.2762C24.1544 38.1739 24.0402 38.1027 23.9103 38.0782L21.4605 37.6171L21.9589 35.3506C21.9853 35.2304 21.9591 35.1054 21.8859 35.0031C21.8127 34.9008 21.6986 34.8295 21.5686 34.8051L18.6288 34.2517C18.4989 34.2273 18.3638 34.2516 18.2532 34.3193C18.1426 34.387 18.0656 34.4926 18.0392 34.6128L17.5408 36.8793L15.091 36.4182C14.961 36.3937 14.8259 36.418 14.7153 36.4857C14.6047 36.5534 14.5278 36.659 14.5013 36.7792L13.9032 39.499C13.8768 39.6192 13.903 39.7443 13.9762 39.8466C14.0494 39.9489 14.1635 40.0201 14.2935 40.0445L16.7433 40.5057L16.1452 43.2254L6.34595 41.381C6.03864 41.3233 5.72099 41.3334 5.41865 41.4103C5.1163 41.4872 4.83773 41.6287 4.60543 41.8236C4.37313 42.0184 4.19359 42.2611 4.08133 42.5319C3.96906 42.8028 3.9272 43.0943 3.95913 43.3829L5.76266 56.3771L24.0677 59.8226L31.2157 48.5133C31.367 48.2592 31.4516 47.9757 31.4626 47.6858C31.4737 47.3959 31.4109 47.1077 31.2794 46.8443C31.1478 46.581 30.9512 46.35 30.7053 46.1699C30.4595 45.9898 30.1714 45.8658 29.8641 45.8077V45.8077Z" fill="white" fill-opacity="0.3"/>
</g>
<path d="M59.9089 37.9318C60.6161 37.9318 61.2944 38.1917 61.7945 38.6544C62.2946 39.1171 62.5755 39.7446 62.5755 40.3989C62.5755 41.3981 61.9089 42.2492 61.0155 42.644L58.5755 50.4524V56.4351H45.2422V50.4524L42.8022 42.644C41.9089 42.2492 41.2422 41.3981 41.2422 40.3989C41.2422 39.7446 41.5231 39.1171 42.0232 38.6544C42.5233 38.1917 43.2016 37.9318 43.9089 37.9318C44.6161 37.9318 45.2944 38.1917 45.7945 38.6544C46.2946 39.1171 46.5755 39.7446 46.5755 40.3989C46.5755 41.0157 46.3355 41.5708 45.9089 42.0025L49.6422 45.7649L50.3489 41.1637C49.6822 40.7196 49.2422 39.9918 49.2422 39.1654C49.2422 38.511 49.5231 37.8835 50.0232 37.4208C50.5233 36.9582 51.2016 36.6982 51.9089 36.6982C52.6161 36.6982 53.2944 36.9582 53.7945 37.4208C54.2946 37.8835 54.5755 38.511 54.5755 39.1654C54.5755 39.9918 54.1355 40.7196 53.4689 41.1637L54.1755 45.7649L57.8689 41.9902C57.4636 41.5448 57.2416 40.9811 57.2422 40.3989C57.2422 39.7446 57.5231 39.1171 58.0232 38.6544C58.5233 38.1917 59.2016 37.9318 59.9089 37.9318V37.9318ZM42.5755 58.9022H61.2422V61.3693H42.5755V58.9022Z" fill="white" fill-opacity="0.3"/>
<path d="M98.2422 61.3693H79.5755V58.9022H98.2422V61.3693ZM95.7889 44.4203C97.2011 46.1085 98.0534 48.1397 98.2422 50.2673C98.2422 53.672 94.0689 56.4351 88.9089 56.4351C83.7489 56.4351 79.5755 53.672 79.5755 50.2673C79.5755 47.3315 82.6822 42.1135 86.8555 40.732C86.4555 40.2879 86.2422 39.7328 86.2422 39.1654C86.2422 38.511 86.5231 37.8835 87.0232 37.4208C87.5233 36.9582 88.2016 36.6982 88.9089 36.6982C89.6161 36.6982 90.2944 36.9582 90.7945 37.4208C91.2946 37.8835 91.5755 38.511 91.5755 39.1654C91.5755 39.7328 91.3622 40.2879 90.9622 40.732C92.1089 41.139 93.1489 41.7558 94.0289 42.5453L87.9622 48.158L89.8555 49.9096L95.7889 44.4203V44.4203Z" fill="white" fill-opacity="0.3"/>
<g clip-path="url(#clip7)">
<path d="M134.909 60.1358H112.909C112.644 60.1358 112.389 60.2333 112.202 60.4068C112.014 60.5803 111.909 60.8156 111.909 61.061V62.9113C111.909 63.1567 112.014 63.392 112.202 63.5655C112.389 63.739 112.644 63.8365 112.909 63.8365H134.909C135.174 63.8365 135.428 63.739 135.616 63.5655C135.803 63.392 135.909 63.1567 135.909 62.9113V61.061C135.909 60.8156 135.803 60.5803 135.616 60.4068C135.428 60.2333 135.174 60.1358 134.909 60.1358ZM135.909 43.4828H125.909V40.7073H128.409C128.541 40.7073 128.669 40.6586 128.762 40.5718C128.856 40.4851 128.909 40.3674 128.909 40.2447V37.4692C128.909 37.3465 128.856 37.2289 128.762 37.1421C128.669 37.0554 128.541 37.0066 128.409 37.0066H125.909V34.6937C125.909 34.571 125.856 34.4534 125.762 34.3666C125.669 34.2799 125.541 34.2311 125.409 34.2311H122.409C122.276 34.2311 122.149 34.2799 122.055 34.3666C121.962 34.4534 121.909 34.571 121.909 34.6937V37.0066H119.409C119.276 37.0066 119.149 37.0554 119.055 37.1421C118.962 37.2289 118.909 37.3465 118.909 37.4692V40.2447C118.909 40.3674 118.962 40.4851 119.055 40.5718C119.149 40.6586 119.276 40.7073 119.409 40.7073H121.909V43.4828H111.909C111.595 43.483 111.286 43.5515 111.006 43.6826C110.727 43.8137 110.484 44.0038 110.299 44.2376C110.113 44.4714 109.989 44.7422 109.938 45.0284C109.886 45.3145 109.908 45.6079 110.001 45.8848L114.569 58.2855H133.249L137.816 45.8848C137.91 45.6079 137.932 45.3145 137.88 45.0284C137.828 44.7422 137.705 44.4714 137.519 44.2376C137.333 44.0038 137.091 43.8137 136.811 43.6826C136.532 43.5515 136.222 43.483 135.909 43.4828V43.4828Z" fill="white" fill-opacity="0.3"/>
</g>
<path d="M168.242 61.3693H149.576V58.9022H168.242V61.3693ZM165.789 44.4203C167.201 46.1085 168.053 48.1397 168.242 50.2673C168.242 53.672 164.069 56.4351 158.909 56.4351C153.749 56.4351 149.576 53.672 149.576 50.2673C149.576 47.3315 152.682 42.1135 156.856 40.732C156.456 40.2879 156.242 39.7328 156.242 39.1654C156.242 38.511 156.523 37.8835 157.023 37.4208C157.523 36.9582 158.202 36.6982 158.909 36.6982C159.616 36.6982 160.294 36.9582 160.794 37.4208C161.295 37.8835 161.576 38.511 161.576 39.1654C161.576 39.7328 161.362 40.2879 160.962 40.732C162.109 41.139 163.149 41.7558 164.029 42.5453L157.962 48.158L159.856 49.9096L165.789 44.4203V44.4203Z" fill="white" fill-opacity="0.3"/>
<path d="M205.242 61.3693H186.576V58.9022H205.242V61.3693ZM202.789 44.4203C204.201 46.1085 205.053 48.1397 205.242 50.2673C205.242 53.672 201.069 56.4351 195.909 56.4351C190.749 56.4351 186.576 53.672 186.576 50.2673C186.576 47.3315 189.682 42.1135 193.856 40.732C193.456 40.2879 193.242 39.7328 193.242 39.1654C193.242 38.511 193.523 37.8835 194.023 37.4208C194.523 36.9582 195.202 36.6982 195.909 36.6982C196.616 36.6982 197.294 36.9582 197.794 37.4208C198.295 37.8835 198.576 38.511 198.576 39.1654C198.576 39.7328 198.362 40.2879 197.962 40.732C199.109 41.139 200.149 41.7558 201.029 42.5453L194.962 48.158L196.856 49.9096L202.789 44.4203V44.4203Z" fill="white" fill-opacity="0.3"/>
<g clip-path="url(#clip8)">
<path d="M241.909 60.1358H219.909C219.644 60.1358 219.389 60.2333 219.202 60.4068C219.014 60.5803 218.909 60.8156 218.909 61.061V62.9113C218.909 63.1567 219.014 63.392 219.202 63.5655C219.389 63.739 219.644 63.8365 219.909 63.8365H241.909C242.174 63.8365 242.428 63.739 242.616 63.5655C242.804 63.392 242.909 63.1567 242.909 62.9113V61.061C242.909 60.8156 242.804 60.5803 242.616 60.4068C242.428 60.2333 242.174 60.1358 241.909 60.1358ZM242.909 43.4828H232.909V40.7073H235.409C235.541 40.7073 235.669 40.6586 235.762 40.5718C235.856 40.4851 235.909 40.3674 235.909 40.2447V37.4692C235.909 37.3465 235.856 37.2289 235.762 37.1421C235.669 37.0554 235.541 37.0066 235.409 37.0066H232.909V34.6937C232.909 34.571 232.856 34.4534 232.762 34.3666C232.669 34.2799 232.541 34.2311 232.409 34.2311H229.409C229.276 34.2311 229.149 34.2799 229.055 34.3666C228.962 34.4534 228.909 34.571 228.909 34.6937V37.0066H226.409C226.276 37.0066 226.149 37.0554 226.055 37.1421C225.962 37.2289 225.909 37.3465 225.909 37.4692V40.2447C225.909 40.3674 225.962 40.4851 226.055 40.5718C226.149 40.6586 226.276 40.7073 226.409 40.7073H228.909V43.4828H218.909C218.595 43.483 218.286 43.5515 218.006 43.6826C217.727 43.8137 217.484 44.0038 217.299 44.2376C217.113 44.4714 216.989 44.7422 216.938 45.0284C216.886 45.3145 216.908 45.6079 217.001 45.8848L221.569 58.2855H240.249L244.816 45.8848C244.91 45.6079 244.932 45.3145 244.88 45.0284C244.828 44.7422 244.705 44.4714 244.519 44.2376C244.333 44.0038 244.091 43.8137 243.811 43.6826C243.532 43.5515 243.222 43.483 242.909 43.4828V43.4828Z" fill="white" fill-opacity="0.3"/>
</g>
<g clip-path="url(#clip9)">
<path d="M265.481 64.086L250.475 53.8135L252.061 51.8303L267.067 62.1028L265.481 64.086ZM274.912 39.8515C273.572 38.9343 271.826 38.6906 270.262 39.2156L263.722 41.3986L264.28 44.8493L267.574 45.0023C268.292 45.0178 268.882 45.6064 268.85 46.29C268.847 46.3344 268.856 46.3862 268.824 46.4258C268.678 47.231 267.997 47.8543 267.12 47.9755L258.169 49.2132C257.135 49.3649 256.421 50.2574 256.585 51.2137C256.658 51.6623 256.917 52.0851 257.313 52.3565L266.509 58.6521L276.026 46.7529C276.868 45.7009 277.223 44.3828 277.014 43.0886C276.805 41.7943 276.049 40.6299 274.912 39.8515Z" fill="white" fill-opacity="0.3"/>
</g>
<path d="M312.242 61.3693H293.575V58.9022H312.242V61.3693ZM304.242 36.6982C302.575 36.6982 301.015 37.463 300.095 38.7459L296.242 44.0996L298.909 46.5667L301.655 44.8767C302.242 44.4943 303.095 44.6423 303.509 45.2098C303.535 45.2468 303.575 45.2838 303.575 45.3331C303.975 46.0609 303.829 46.9367 303.202 47.5165L296.802 53.4376C296.069 54.1284 296.069 55.2386 296.815 55.917C297.162 56.2378 297.642 56.4351 298.135 56.4351H309.575V41.6325C309.575 40.3238 309.014 39.0688 308.013 38.1434C307.013 37.2181 305.657 36.6982 304.242 36.6982Z" fill="white" fill-opacity="0.3"/>
<path d="M26.9088 72.1629C27.6161 72.1629 28.2944 72.4229 28.7945 72.8855C29.2946 73.3482 29.5755 73.9757 29.5755 74.63C29.5755 75.6292 28.9088 76.4804 28.0155 76.8751L25.5755 84.6835V90.6663H12.2422V84.6835L9.80217 76.8751C8.90884 76.4804 8.24217 75.6292 8.24217 74.63C8.24217 73.9757 8.52312 73.3482 9.02322 72.8855C9.52332 72.4229 10.2016 72.1629 10.9088 72.1629C11.6161 72.1629 12.2944 72.4229 12.7945 72.8855C13.2946 73.3482 13.5755 73.9757 13.5755 74.63C13.5755 75.2468 13.3355 75.8019 12.9088 76.2337L16.6422 79.996L17.3488 75.3949C16.6822 74.9508 16.2422 74.223 16.2422 73.3965C16.2422 72.7422 16.5231 72.1147 17.0232 71.652C17.5233 71.1893 18.2016 70.9294 18.9088 70.9294C19.6161 70.9294 20.2944 71.1893 20.7945 71.652C21.2946 72.1147 21.5755 72.7422 21.5755 73.3965C21.5755 74.223 21.1355 74.9508 20.4688 75.3949L21.1755 79.996L24.8688 76.2213C24.4635 75.7759 24.2416 75.2123 24.2422 74.63C24.2422 73.9757 24.5231 73.3482 25.0232 72.8855C25.5233 72.4229 26.2016 72.1629 26.9088 72.1629V72.1629ZM9.57551 93.1334H28.2422V95.6005H9.57551V93.1334Z" fill="white" fill-opacity="0.3"/>
<g clip-path="url(#clip10)">
<path d="M72.0871 84.9079L59.7778 97.8907L57.7731 96.2639L70.0824 83.281L72.0871 84.9079ZM56.6969 75.4375C59 75.5686 61.2125 76.3152 63.0659 77.5869C65.8324 79.832 65.3257 84.5567 61.923 88.1455C58.5204 91.7344 53.5231 92.8149 50.7566 90.5698C48.371 88.6338 46.1796 83.0322 47.809 79.2186C47.1843 79.2039 46.5926 78.9863 46.1315 78.6121C45.5998 78.1806 45.2752 77.5714 45.229 76.9185C45.1828 76.2656 45.4189 75.6224 45.8853 75.1305C46.3517 74.6386 47.0101 74.3383 47.7159 74.2955C48.4216 74.2528 49.1168 74.4712 49.6485 74.9027C50.1096 75.2769 50.4199 75.7913 50.517 76.3623C51.6039 75.8333 52.7909 75.5166 54.0127 75.4252L54.5729 83.3458L57.2448 83.184L56.6969 75.4375V75.4375Z" fill="white" fill-opacity="0.3"/>
</g>
<g clip-path="url(#clip11)">
<path d="M105.947 77.4989L98.423 96.625C98.3323 96.8556 98.3443 97.1101 98.4564 97.3325C98.5684 97.5548 98.7714 97.7269 99.0207 97.8108L100.9 98.4437C101.149 98.5276 101.424 98.5165 101.665 98.4128C101.905 98.3091 102.091 98.1213 102.182 97.8907L109.706 78.7646C109.797 78.534 109.785 78.2795 109.673 78.0571C109.561 77.8348 109.358 77.6627 109.109 77.5788L107.229 76.9459C106.98 76.862 106.705 76.8731 106.464 76.9768C106.224 77.0805 106.038 77.2683 105.947 77.4989ZM89.375 70.9338L85.9548 79.6275L83.1357 78.6783L83.9907 76.5048C84.0361 76.3896 84.0301 76.2623 83.9741 76.1511C83.918 76.0399 83.8165 75.9539 83.6919 75.9119L80.8728 74.9627C80.7482 74.9207 80.6107 74.9263 80.4905 74.9781C80.3703 75.03 80.2773 75.1239 80.232 75.2391L79.3769 77.4126L77.0277 76.6215C76.9031 76.5795 76.7656 76.5851 76.6454 76.6369C76.5252 76.6888 76.4322 76.7827 76.3868 76.898L75.3608 79.5061C75.3154 79.6214 75.3214 79.7486 75.3775 79.8598C75.4335 79.971 75.535 80.057 75.6596 80.099L78.0088 80.8901L77.1538 83.0635C77.1084 83.1788 77.1144 83.306 77.1705 83.4172C77.2265 83.5284 77.328 83.6144 77.4526 83.6564L80.2717 84.6057C80.3963 84.6476 80.5338 84.6421 80.654 84.5902C80.7742 84.5384 80.8672 84.4445 80.9126 84.3292L81.7676 82.1558L84.5867 83.105L81.1665 91.7987C81.0595 92.0714 81.0233 92.3636 81.0608 92.6516C81.0983 92.9396 81.2084 93.2154 81.3824 93.4568C81.5564 93.6981 81.7892 93.8983 82.0622 94.041C82.3351 94.1838 82.6405 94.2652 82.9538 94.2786L97.1113 94.549L103.5 78.3092L92.4671 70.097C92.2178 69.921 91.9273 69.8018 91.619 69.7488C91.3107 69.6958 90.9933 69.7107 90.6923 69.7921C90.3914 69.8736 90.1153 70.0193 89.8865 70.2177C89.6577 70.416 89.4824 70.6613 89.375 70.9338V70.9338Z" fill="white" fill-opacity="0.3"/>
</g>
<g clip-path="url(#clip12)">
<path d="M123.009 90.0123C124.529 89.2149 124.85 87.9972 121.575 86.9017C121.575 86.9017 119.354 82.3718 119.275 80.8028C119.224 79.7958 119.305 79.6934 119.305 79.6934C122.985 79.183 121.63 77.8149 120.631 77.6962C122.005 76.7736 122.903 75.2614 122.903 73.5511C122.903 70.7406 120.483 68.4623 117.498 68.4623C114.512 68.4623 112.092 70.7406 112.092 73.5511C112.092 75.2579 112.986 76.7673 114.356 77.6905C112.189 78.2379 113.535 79.4923 115.558 79.6819C115.715 79.6821 115.701 79.9323 115.701 80.7745C115.701 81.9233 114.23 85.229 113.407 86.9315C113.407 86.9315 112.204 87.1457 111.347 87.8376C110.569 88.4655 110.62 89.3443 111.998 90.0257C109.5 92.6965 109.941 95.9424 109.941 95.9424C111.211 98.8796 124.513 98.6705 124.998 95.9424C124.989 94.4515 125.051 92.4376 123.009 90.0123V90.0123Z" fill="white" fill-opacity="0.3"/>
</g>
<path d="M154.039 72.1629C154.746 72.1629 155.424 72.4229 155.924 72.8855C156.425 73.3482 156.706 73.9757 156.706 74.63C156.706 75.6292 156.039 76.4804 155.146 76.8751L152.706 84.6835V90.6663H139.372V84.6835L136.932 76.8751C136.039 76.4804 135.372 75.6292 135.372 74.63C135.372 73.9757 135.653 73.3482 136.153 72.8855C136.653 72.4229 137.332 72.1629 138.039 72.1629C138.746 72.1629 139.424 72.4229 139.924 72.8855C140.425 73.3482 140.706 73.9757 140.706 74.63C140.706 75.2468 140.466 75.8019 140.039 76.2337L143.772 79.996L144.479 75.3949C143.812 74.9508 143.372 74.223 143.372 73.3965C143.372 72.7422 143.653 72.1147 144.153 71.652C144.653 71.1893 145.332 70.9294 146.039 70.9294C146.746 70.9294 147.424 71.1893 147.924 71.652C148.425 72.1147 148.706 72.7422 148.706 73.3965C148.706 74.223 148.266 74.9508 147.599 75.3949L148.306 79.996L151.999 76.2213C151.594 75.7759 151.372 75.2123 151.372 74.63C151.372 73.9757 151.653 73.3482 152.153 72.8855C152.653 72.4229 153.332 72.1629 154.039 72.1629V72.1629ZM136.706 93.1334H155.372V95.6005H136.706V93.1334Z" fill="white" fill-opacity="0.3"/>
<g clip-path="url(#clip13)">
<path d="M197.42 82.2622C197.856 82.7778 198.052 83.4323 197.966 84.0818C197.88 84.7312 197.518 85.3224 196.961 85.7252C196.11 86.3404 194.974 86.3784 194.088 85.9701L185.935 88.9986L180.839 92.6819L172.63 82.9614L177.726 79.278L182.875 72.6918C182.661 71.7975 182.976 70.7875 183.827 70.1723C184.384 69.7695 185.091 69.588 185.793 69.6677C186.495 69.7475 187.134 70.0819 187.57 70.5975C188.005 71.1132 188.201 71.7677 188.115 72.4171C188.029 73.0666 187.667 73.6577 187.11 74.0606C186.585 74.4403 185.964 74.6071 185.334 74.5618L184.428 79.5999L188.782 77.2823C188.75 76.5229 189.099 75.754 189.803 75.2452C190.36 74.8424 191.067 74.6609 191.769 74.7406C192.471 74.8203 193.11 75.1548 193.546 75.6704C193.981 76.186 194.177 76.8405 194.091 77.49C194.005 78.1394 193.643 78.7306 193.086 79.1334C192.382 79.6423 191.491 79.7696 190.703 79.5569L187.219 82.9049L192.708 83.2736C192.837 82.7039 193.181 82.195 193.677 81.837C194.235 81.4342 194.942 81.2526 195.644 81.3324C196.346 81.4121 196.985 81.7466 197.42 82.2622V82.2622ZM168.887 82.5362L180.38 96.1449L178.278 97.6639L166.786 84.0551L168.887 82.5362Z" fill="white" fill-opacity="0.3"/>
</g>
<g clip-path="url(#clip14)">
<path d="M216.181 95.8827L233.044 88.4774L234.188 90.7062L217.324 98.1115L216.181 95.8827ZM220.344 69.4763L222.059 72.8195L219.65 73.8774L217.935 70.5342L215.526 71.5921L217.241 74.9353L214.832 75.9932L213.117 72.65L210.708 73.7079L212.423 77.051L210.014 78.1089L208.299 74.7658L205.89 75.8237L209.32 82.51L211.729 81.4521L217.447 92.5961L229.492 87.3066L223.775 76.1626L226.184 75.1047L222.753 68.4184L220.344 69.4763Z" fill="white" fill-opacity="0.3"/>
</g>
<g clip-path="url(#clip15)">
<path d="M254.139 90.0123C255.659 89.2149 255.98 87.9972 252.705 86.9017C252.705 86.9017 250.484 82.3718 250.405 80.8028C250.354 79.7958 250.435 79.6934 250.435 79.6934C254.115 79.183 252.76 77.8149 251.761 77.6962C253.135 76.7736 254.033 75.2614 254.033 73.5511C254.033 70.7406 251.613 68.4623 248.628 68.4623C245.642 68.4623 243.222 70.7406 243.222 73.5511C243.222 75.2579 244.116 76.7673 245.486 77.6905C243.319 78.2379 244.665 79.4923 246.688 79.6819C246.845 79.6821 246.831 79.9323 246.831 80.7745C246.831 81.9233 245.36 85.229 244.537 86.9315C244.537 86.9315 243.334 87.1457 242.477 87.8376C241.699 88.4655 241.75 89.3443 243.128 90.0257C240.63 92.6965 241.071 95.9424 241.071 95.9424C242.341 98.8796 255.643 98.6705 256.128 95.9424C256.119 94.4515 256.181 92.4376 254.139 90.0123V90.0123Z" fill="white" fill-opacity="0.3"/>
</g>
<path d="M286.502 95.6005H267.835V93.1334H286.502V95.6005ZM284.049 78.6514C285.461 80.3397 286.313 82.3709 286.502 84.4985C286.502 87.9031 282.329 90.6663 277.169 90.6663C272.009 90.6663 267.835 87.9031 267.835 84.4985C267.835 81.5626 270.942 76.3447 275.115 74.9631C274.715 74.519 274.502 73.9639 274.502 73.3965C274.502 72.7422 274.783 72.1147 275.283 71.652C275.783 71.1893 276.462 70.9294 277.169 70.9294C277.876 70.9294 278.554 71.1893 279.054 71.652C279.555 72.1147 279.835 72.7422 279.835 73.3965C279.835 73.9639 279.622 74.519 279.222 74.9631C280.369 75.3702 281.409 75.987 282.289 76.7764L276.222 82.3891L278.115 84.1408L284.049 78.6514V78.6514Z" fill="white" fill-opacity="0.3"/>
<g clip-path="url(#clip16)">
<path d="M311.269 90.0123C312.789 89.2149 313.11 87.9972 309.835 86.9017C309.835 86.9017 307.614 82.3718 307.535 80.8028C307.484 79.7958 307.565 79.6934 307.565 79.6934C311.245 79.183 309.89 77.8149 308.891 77.6962C310.265 76.7736 311.163 75.2614 311.163 73.5511C311.163 70.7406 308.743 68.4623 305.758 68.4623C302.772 68.4623 300.352 70.7406 300.352 73.5511C300.352 75.2579 301.246 76.7673 302.616 77.6905C300.449 78.2379 301.795 79.4923 303.818 79.6819C303.975 79.6821 303.961 79.9323 303.961 80.7745C303.961 81.9233 302.49 85.229 301.667 86.9315C301.667 86.9315 300.464 87.1457 299.607 87.8376C298.829 88.4655 298.88 89.3443 300.258 90.0257C297.76 92.6965 298.201 95.9424 298.201 95.9424C299.471 98.8796 312.773 98.6705 313.258 95.9424C313.249 94.4515 313.311 92.4376 311.269 90.0123V90.0123Z" fill="white" fill-opacity="0.3"/>
</g>
<g clip-path="url(#clip17)">
<path d="M16.0093 124.243C17.5291 123.446 17.8503 122.228 14.5752 121.133C14.5752 121.133 12.3543 116.603 12.2747 115.034C12.2237 114.027 12.3048 113.925 12.3048 113.925C15.9854 113.414 14.63 112.046 13.631 111.927C15.0055 111.005 15.9027 109.493 15.9027 107.782C15.9027 104.972 13.4827 102.693 10.4976 102.693C7.51246 102.693 5.09246 104.972 5.09246 107.782C5.09246 109.489 5.9859 110.999 7.35559 111.922C5.18921 112.469 6.53459 113.723 8.55846 113.913C8.71509 113.913 8.70146 114.163 8.70146 115.006C8.70146 116.155 7.23009 119.46 6.40678 121.163C6.40678 121.163 5.20353 121.377 4.34684 122.069C3.56947 122.697 3.61984 123.575 4.99815 124.257C2.50015 126.928 2.9414 130.174 2.9414 130.174C4.21134 133.111 17.5133 132.902 17.9975 130.174C17.9892 128.683 18.0513 126.669 16.0093 124.243V124.243Z" fill="white" fill-opacity="0.3"/>
</g>
<g clip-path="url(#clip18)">
<path d="M48.0389 128.598H26.0389C25.7737 128.598 25.5193 128.696 25.3318 128.869C25.1442 129.043 25.0389 129.278 25.0389 129.523V131.374C25.0389 131.619 25.1442 131.854 25.3318 132.028C25.5193 132.201 25.7737 132.299 26.0389 132.299H48.0389C48.3041 132.299 48.5584 132.201 48.746 132.028C48.9335 131.854 49.0389 131.619 49.0389 131.374V129.523C49.0389 129.278 48.9335 129.043 48.746 128.869C48.5584 128.696 48.3041 128.598 48.0389 128.598ZM49.0389 111.945H39.0389V109.17H41.5389C41.6715 109.17 41.7987 109.121 41.8924 109.034C41.9862 108.947 42.0389 108.83 42.0389 108.707V105.932C42.0389 105.809 41.9862 105.691 41.8924 105.604C41.7987 105.518 41.6715 105.469 41.5389 105.469H39.0389V103.156C39.0389 103.033 38.9862 102.916 38.8924 102.829C38.7987 102.742 38.6715 102.693 38.5389 102.693H35.5389C35.4063 102.693 35.2791 102.742 35.1853 102.829C35.0915 102.916 35.0389 103.033 35.0389 103.156V105.469H32.5389C32.4063 105.469 32.2791 105.518 32.1853 105.604C32.0915 105.691 32.0389 105.809 32.0389 105.932V108.707C32.0389 108.83 32.0915 108.947 32.1853 109.034C32.2791 109.121 32.4063 109.17 32.5389 109.17H35.0389V111.945H25.0389C24.7253 111.945 24.4162 112.014 24.1365 112.145C23.8568 112.276 23.6143 112.466 23.4287 112.7C23.243 112.934 23.1194 113.205 23.0677 113.491C23.0161 113.777 23.0379 114.07 23.1314 114.347L27.6989 126.748H46.3789L50.9464 114.347C51.0398 114.07 51.0616 113.777 51.01 113.491C50.9584 113.205 50.8347 112.934 50.6491 112.7C50.4634 112.466 50.2209 112.276 49.9412 112.145C49.6615 112.014 49.3524 111.945 49.0389 111.945V111.945Z" fill="white" fill-opacity="0.3"/>
</g>
<path d="M81.3722 129.832H62.7055V127.365H81.3722V129.832ZM73.3722 105.161C71.7055 105.161 70.1455 105.925 69.2255 107.208L65.3722 112.562L68.0389 115.029L70.7855 113.339C71.3722 112.957 72.2255 113.105 72.6389 113.672C72.6655 113.709 72.7055 113.746 72.7055 113.795C73.1055 114.523 72.9589 115.399 72.3322 115.979L65.9322 121.9C65.1989 122.591 65.1989 123.701 65.9455 124.379C66.2922 124.7 66.7722 124.897 67.2655 124.897H78.7055V110.095C78.7055 108.786 78.1436 107.531 77.1434 106.606C76.1432 105.68 74.7867 105.161 73.3722 105.161Z" fill="white" fill-opacity="0.3"/>
<path d="M99.7055 127.365H118.372V129.832H99.7055V127.365ZM115.706 105.161V108.861H113.039V105.161H110.372V108.861H107.706V105.161H105.039V108.861H102.372V105.161H99.7055V112.562H102.372V124.897H115.706V112.562H118.372V105.161H115.706Z" fill="white" fill-opacity="0.3"/>
<g clip-path="url(#clip19)">
<path d="M160.439 116.755C160.863 117.279 161.045 117.936 160.945 118.584C160.846 119.232 160.471 119.816 159.906 120.209C159.042 120.809 157.906 120.826 157.028 120.402L148.813 123.281L143.64 126.871L135.639 117.003L140.812 113.413L146.099 106.922C145.905 106.024 146.241 105.02 147.105 104.42C147.67 104.028 148.382 103.859 149.082 103.952C149.782 104.044 150.414 104.39 150.838 104.914C151.262 105.437 151.445 106.095 151.345 106.743C151.245 107.39 150.871 107.975 150.305 108.368C149.772 108.738 149.148 108.893 148.518 108.836L147.505 113.857L151.908 111.619C151.892 110.859 152.257 110.097 152.972 109.601C153.537 109.208 154.249 109.04 154.949 109.132C155.649 109.225 156.281 109.571 156.705 110.094C157.129 110.618 157.312 111.276 157.212 111.923C157.112 112.571 156.738 113.155 156.172 113.548C155.457 114.044 154.564 114.155 153.78 113.928L150.226 117.212L155.706 117.681C155.847 117.113 156.202 116.611 156.705 116.262C157.271 115.869 157.982 115.701 158.683 115.793C159.383 115.886 160.014 116.232 160.439 116.755V116.755ZM131.905 116.51L143.106 130.325L140.973 131.806L129.772 117.991L131.905 116.51Z" fill="white" fill-opacity="0.3"/>
</g>
<path d="M173.706 127.365H192.372V129.832H173.706V127.365ZM189.706 105.161V108.861H187.039V105.161H184.372V108.861H181.706V105.161H179.039V108.861H176.372V105.161H173.706V112.562H176.372V124.897H189.706V112.562H192.372V105.161H189.706Z" fill="white" fill-opacity="0.3"/>
<path d="M232.284 127.415L214.156 131.536L213.52 129.14L231.648 125.019L232.284 127.415ZM225.53 111.497C227.337 112.825 228.689 114.609 229.421 116.634C230.299 119.94 226.959 123.545 221.948 124.684C216.937 125.823 212.171 124.061 211.293 120.754C210.536 117.903 212.207 112.15 215.904 109.887C215.401 109.544 215.051 109.052 214.904 108.501C214.735 107.866 214.846 107.194 215.213 106.635C215.579 106.075 216.171 105.673 216.858 105.517C217.544 105.361 218.27 105.463 218.875 105.802C219.48 106.141 219.915 106.689 220.084 107.324C220.23 107.875 220.166 108.461 219.892 108.981C221.11 109.123 222.279 109.492 223.338 110.065L218.894 116.855L221.184 118.138L225.53 111.497V111.497Z" fill="white" fill-opacity="0.3"/>
<g clip-path="url(#clip20)">
<path d="M258.49 132.494L242.304 123.891L243.632 121.752L259.818 130.354L258.49 132.494ZM264.837 107.415C263.392 106.646 261.627 106.591 260.139 107.279L253.915 110.145L254.899 113.513L258.19 113.314C258.905 113.253 259.565 113.774 259.618 114.457C259.621 114.501 259.636 114.552 259.61 114.595C259.564 115.41 258.966 116.102 258.11 116.316L249.373 118.5C248.365 118.761 247.767 119.724 248.049 120.656C248.177 121.094 248.487 121.487 248.915 121.714L258.834 126.986L266.805 114.151C267.509 113.016 267.698 111.669 267.329 110.406C266.96 109.142 266.063 108.066 264.837 107.415Z" fill="white" fill-opacity="0.3"/>
</g>
<path d="M284.705 127.365H303.372V129.832H284.705V127.365ZM300.705 105.161V108.861H298.039V105.161H295.372V108.861H292.705V105.161H290.039V108.861H287.372V105.161H284.705V112.562H287.372V124.897H300.705V112.562H303.372V105.161H300.705Z" fill="white" fill-opacity="0.3"/>
<path d="M26.9088 140.625C27.6161 140.625 28.2944 140.885 28.7945 141.348C29.2946 141.811 29.5755 142.438 29.5755 143.092C29.5755 144.092 28.9088 144.943 28.0155 145.337L25.5755 153.146V159.129H12.2422V153.146L9.80217 145.337C8.90884 144.943 8.24217 144.092 8.24217 143.092C8.24217 142.438 8.52312 141.811 9.02322 141.348C9.52332 140.885 10.2016 140.625 10.9088 140.625C11.6161 140.625 12.2944 140.885 12.7945 141.348C13.2946 141.811 13.5755 142.438 13.5755 143.092C13.5755 143.709 13.3355 144.264 12.9088 144.696L16.6422 148.458L17.3488 143.857C16.6822 143.413 16.2422 142.685 16.2422 141.859C16.2422 141.205 16.5231 140.577 17.0232 140.114C17.5233 139.652 18.2016 139.392 18.9088 139.392C19.6161 139.392 20.2944 139.652 20.7945 140.114C21.2946 140.577 21.5755 141.205 21.5755 141.859C21.5755 142.685 21.1355 143.413 20.4688 143.857L21.1755 148.458L24.8688 144.684C24.4635 144.238 24.2416 143.675 24.2422 143.092C24.2422 142.438 24.5231 141.811 25.0232 141.348C25.5233 140.885 26.2016 140.625 26.9088 140.625V140.625ZM9.57551 161.596H28.2422V164.063H9.57551V161.596Z" fill="white" fill-opacity="0.3"/>
<g clip-path="url(#clip21)">
<path d="M72.0539 149.825L63.3669 165.111L61.0066 163.963L69.6936 148.677L72.0539 149.825ZM54.6969 143.946C56.9692 143.576 59.3091 143.823 61.4325 144.658C64.6897 146.243 65.3911 150.946 62.9898 155.172C60.5885 159.397 56.0028 161.529 52.7455 159.944C49.9368 158.578 46.3905 153.606 47.0109 149.545C46.3999 149.666 45.7695 149.583 45.2266 149.318C44.6007 149.014 44.131 148.492 43.9211 147.867C43.7112 147.242 43.7782 146.566 44.1073 145.987C44.4365 145.408 45.0008 144.973 45.6762 144.779C46.3515 144.585 47.0826 144.647 47.7086 144.951C48.2515 145.215 48.6833 145.648 48.922 146.182C49.8451 145.433 50.9191 144.868 52.084 144.515L54.6304 152.095L57.1873 151.36L54.6969 143.946V143.946Z" fill="white" fill-opacity="0.3"/>
</g>
<g clip-path="url(#clip22)">
<path d="M89.9966 166.764L74.6378 152.192C74.4527 152.016 74.1997 151.915 73.9345 151.912C73.6693 151.909 73.4136 152.004 73.2237 152.175L71.7918 153.467C71.6019 153.638 71.4933 153.872 71.49 154.118C71.4866 154.363 71.5888 154.599 71.7739 154.775L87.1327 169.348C87.3178 169.524 87.5708 169.624 87.836 169.627C88.1012 169.63 88.3569 169.536 88.5468 169.364L89.9787 168.073C90.1686 167.901 90.2772 167.667 90.2805 167.422C90.2839 167.177 90.1817 166.94 89.9966 166.764ZM103.582 155.801L96.601 149.177L98.7489 147.239L100.494 148.895C100.587 148.983 100.713 149.033 100.846 149.035C100.979 149.036 101.106 148.989 101.201 148.903L103.349 146.966C103.444 146.88 103.498 146.763 103.5 146.64C103.502 146.518 103.451 146.4 103.358 146.312L101.613 144.656L103.403 143.041C103.498 142.955 103.552 142.838 103.554 142.716C103.555 142.593 103.504 142.475 103.412 142.387L101.317 140.4C101.225 140.312 101.098 140.262 100.966 140.26C100.833 140.258 100.705 140.306 100.61 140.391L98.8203 142.006L97.075 140.35C96.9824 140.262 96.8559 140.212 96.7233 140.211C96.5907 140.209 96.4629 140.256 96.368 140.342L94.22 142.279C94.1251 142.365 94.0708 142.482 94.0691 142.605C94.0675 142.728 94.1185 142.846 94.2111 142.934L95.9564 144.59L93.8085 146.527L86.8272 139.903C86.6082 139.696 86.3394 139.539 86.0427 139.445C85.7459 139.351 85.4295 139.323 85.119 139.364C84.8085 139.404 84.5125 139.511 84.255 139.677C83.9976 139.842 83.7857 140.061 83.6367 140.317L77.2286 151.999L90.2696 164.373L103.055 158.741C103.335 158.61 103.577 158.419 103.762 158.186C103.948 157.952 104.071 157.681 104.122 157.394C104.174 157.108 104.151 156.815 104.058 156.538C103.964 156.261 103.801 156.009 103.582 155.801V155.801Z" fill="white" fill-opacity="0.3"/>
</g>
<path d="M135.242 164.063H116.576V161.596H135.242V164.063ZM132.789 147.114C134.201 148.802 135.053 150.833 135.242 152.961C135.242 156.365 131.069 159.129 125.909 159.129C120.749 159.129 116.576 156.365 116.576 152.961C116.576 150.025 119.682 144.807 123.856 143.425C123.456 142.981 123.242 142.426 123.242 141.859C123.242 141.205 123.523 140.577 124.023 140.114C124.523 139.652 125.202 139.392 125.909 139.392C126.616 139.392 127.294 139.652 127.794 140.114C128.295 140.577 128.576 141.205 128.576 141.859C128.576 142.426 128.362 142.981 127.962 143.425C129.109 143.833 130.149 144.449 131.029 145.239L124.962 150.851L126.856 152.603L132.789 147.114V147.114Z" fill="white" fill-opacity="0.3"/>
<path d="M172.242 164.063H153.576V161.596H172.242V164.063ZM169.789 147.114C171.201 148.802 172.053 150.833 172.242 152.961C172.242 156.365 168.069 159.129 162.909 159.129C157.749 159.129 153.576 156.365 153.576 152.961C153.576 150.025 156.682 144.807 160.856 143.425C160.456 142.981 160.242 142.426 160.242 141.859C160.242 141.205 160.523 140.577 161.023 140.114C161.523 139.652 162.202 139.392 162.909 139.392C163.616 139.392 164.294 139.652 164.794 140.114C165.295 140.577 165.576 141.205 165.576 141.859C165.576 142.426 165.362 142.981 164.962 143.425C166.109 143.833 167.149 144.449 168.029 145.239L161.962 150.851L163.856 152.603L169.789 147.114V147.114Z" fill="white" fill-opacity="0.3"/>
<g clip-path="url(#clip23)">
<path d="M197.009 158.475C198.529 157.677 198.85 156.46 195.575 155.364C195.575 155.364 193.354 150.834 193.275 149.265C193.224 148.258 193.305 148.156 193.305 148.156C196.985 147.645 195.63 146.277 194.631 146.159C196.005 145.236 196.903 143.724 196.903 142.013C196.903 139.203 194.483 136.925 191.498 136.925C188.512 136.925 186.092 139.203 186.092 142.013C186.092 143.72 186.986 145.23 188.356 146.153C186.189 146.7 187.535 147.955 189.558 148.144C189.715 148.144 189.701 148.395 189.701 149.237C189.701 150.386 188.23 153.691 187.407 155.394C187.407 155.394 186.204 155.608 185.347 156.3C184.569 156.928 184.62 157.807 185.998 158.488C183.5 161.159 183.941 164.405 183.941 164.405C185.211 167.342 198.513 167.133 198.998 164.405C198.989 162.914 199.051 160.9 197.009 158.475V158.475Z" fill="white" fill-opacity="0.3"/>
</g>
<g clip-path="url(#clip24)">
<path d="M213.934 165.685L203.774 151.198L206.011 149.855L216.171 164.342L213.934 165.685ZM231.95 146.048C231.043 144.754 229.5 143.96 227.836 143.944L220.884 143.867L220.099 147.28L223.126 148.492C223.792 148.739 224.122 149.482 223.833 150.112C223.814 150.152 223.802 150.204 223.757 150.23C223.315 150.937 222.441 151.3 221.574 151.129L212.722 149.385C211.696 149.192 210.69 149.796 210.481 150.745C210.379 151.188 210.461 151.668 210.73 152.051L216.956 160.93L230.379 152.873C231.565 152.16 232.397 151.041 232.692 149.761C232.987 148.481 232.72 147.146 231.95 146.048Z" fill="white" fill-opacity="0.3"/>
</g>
<path d="M266.372 164.063H247.706V161.596H266.372V164.063ZM263.919 147.114C265.331 148.802 266.183 150.833 266.372 152.961C266.372 156.365 262.199 159.129 257.039 159.129C251.879 159.129 247.706 156.365 247.706 152.961C247.706 150.025 250.812 144.807 254.986 143.425C254.586 142.981 254.372 142.426 254.372 141.859C254.372 141.205 254.653 140.577 255.153 140.114C255.653 139.652 256.332 139.392 257.039 139.392C257.746 139.392 258.424 139.652 258.924 140.114C259.425 140.577 259.706 141.205 259.706 141.859C259.706 142.426 259.492 142.981 259.092 143.425C260.239 143.833 261.279 144.449 262.159 145.239L256.092 150.851L257.986 152.603L263.919 147.114V147.114Z" fill="white" fill-opacity="0.3"/>
<path d="M284.384 163.849L278.423 147.484L280.95 146.696L286.911 163.061L284.384 163.849ZM300.961 156.286C299.683 158.063 297.875 159.459 295.756 160.304C292.268 161.391 288.105 158.615 286.458 154.091C284.81 149.567 286.308 145.026 289.795 143.938C292.802 143.001 299.139 144.058 301.887 147.276C302.214 146.784 302.714 146.419 303.296 146.238C303.966 146.029 304.698 146.075 305.332 146.366C305.965 146.657 306.448 147.168 306.674 147.788C306.9 148.408 306.85 149.086 306.536 149.672C306.222 150.258 305.669 150.705 304.999 150.914C304.417 151.095 303.781 151.085 303.198 150.877C303.147 152.012 302.848 153.121 302.32 154.144L294.634 150.618L293.444 152.837L300.961 156.286V156.286Z" fill="white" fill-opacity="0.3"/>
<g clip-path="url(#clip25)">
<path d="M6.60269 179.453L10.3056 196.379L7.69197 196.869L3.98902 179.942L6.60269 179.453ZM33.2997 189.557L29.3792 190.291L28.8502 187.873L32.7707 187.139L32.2417 184.72L28.3212 185.455L27.7922 183.037L31.7127 182.302L31.1837 179.884L27.2632 180.618L26.7342 178.2L30.6547 177.466L30.1257 175.048L22.2847 176.516L22.8137 178.934L9.74536 181.381L12.3903 193.472L25.4587 191.025L25.9877 193.443L33.8287 191.975L33.2997 189.557Z" fill="white" fill-opacity="0.3"/>
</g>
<g clip-path="url(#clip26)">
<path d="M46.3575 175.961C46.5386 175.328 46.9839 174.788 47.5954 174.46C48.2069 174.131 48.9345 174.04 49.6182 174.208C50.6621 174.464 51.3808 175.278 51.5644 176.178L59.0982 180.36L65.3493 181.892L61.935 193.816L55.6839 192.284L46.9005 192.466C46.2593 193.164 45.1993 193.543 44.1553 193.287C43.4716 193.119 42.8879 192.707 42.5325 192.141C42.1772 191.576 42.0793 190.903 42.2604 190.27C42.4415 189.638 42.8868 189.098 43.4983 188.769C44.1097 188.44 44.8373 188.349 45.521 188.517C46.1654 188.675 46.684 189.032 47.0258 189.524L51.9129 187.148L47.2864 185.338C46.6516 185.821 45.7785 186.028 44.915 185.816C44.2313 185.649 43.6476 185.237 43.2922 184.671C42.9369 184.105 42.839 183.432 43.0201 182.8C43.2012 182.167 43.6465 181.627 44.2579 181.298C44.8694 180.97 45.597 180.879 46.2807 181.047C47.1442 181.258 47.792 181.838 48.0853 182.548L53.0738 183.094L50.0756 178.825C49.5064 179.073 48.8606 179.127 48.2524 178.978C47.5688 178.81 46.9851 178.398 46.6297 177.832C46.2743 177.267 46.1764 176.593 46.3575 175.961V175.961ZM63.8299 196.832L68.6099 180.138L71.1876 180.77L66.4076 197.464L63.8299 196.832Z" fill="white" fill-opacity="0.3"/>
</g>
<g clip-path="url(#clip27)">
<path d="M78.5364 187.065C78.0966 186.553 77.8949 185.9 77.9755 185.25C78.0562 184.6 78.4127 184.006 78.9666 183.599C79.8124 182.978 80.9475 182.932 81.8371 183.333L89.9643 180.246L95.0287 176.526L103.32 186.187L98.2551 189.907L93.1624 196.53C93.3838 197.423 93.0778 198.435 92.232 199.056C91.6781 199.463 90.9722 199.65 90.2696 199.575C89.5669 199.501 88.9252 199.171 88.4854 198.658C88.0456 198.146 87.8439 197.493 87.9246 196.843C88.0053 196.193 88.3618 195.599 88.9156 195.192C89.4378 194.808 90.0569 194.637 90.6877 194.678L91.5511 189.633L87.2168 191.982C87.2554 192.742 86.9129 193.513 86.2133 194.027C85.6594 194.434 84.9535 194.62 84.2508 194.546C83.5482 194.471 82.9064 194.141 82.4666 193.629C82.0269 193.116 81.8251 192.463 81.9058 191.813C81.9865 191.163 82.343 190.569 82.8969 190.163C83.5965 189.649 84.4862 189.515 85.2767 189.722L88.7322 186.349L83.2403 186.02C83.1153 186.59 82.7762 187.102 82.283 187.463C81.7291 187.87 81.0232 188.057 80.3206 187.982C79.6179 187.908 78.9761 187.578 78.5364 187.065V187.065ZM107.066 186.585L95.459 173.06L97.5475 171.525L109.155 185.051L107.066 186.585Z" fill="white" fill-opacity="0.3"/>
</g>
<g clip-path="url(#clip28)">
<path d="M138.909 197.06H116.909C116.644 197.06 116.389 197.158 116.202 197.331C116.014 197.505 115.909 197.74 115.909 197.986V199.836C115.909 200.081 116.014 200.317 116.202 200.49C116.389 200.664 116.644 200.761 116.909 200.761H138.909C139.174 200.761 139.428 200.664 139.616 200.49C139.803 200.317 139.909 200.081 139.909 199.836V197.986C139.909 197.74 139.803 197.505 139.616 197.331C139.428 197.158 139.174 197.06 138.909 197.06ZM139.909 180.407H129.909V177.632H132.409C132.541 177.632 132.669 177.583 132.762 177.496C132.856 177.41 132.909 177.292 132.909 177.169V174.394C132.909 174.271 132.856 174.153 132.762 174.067C132.669 173.98 132.541 173.931 132.409 173.931H129.909V171.618C129.909 171.496 129.856 171.378 129.762 171.291C129.669 171.204 129.541 171.156 129.409 171.156H126.409C126.276 171.156 126.149 171.204 126.055 171.291C125.962 171.378 125.909 171.496 125.909 171.618V173.931H123.409C123.276 173.931 123.149 173.98 123.055 174.067C122.962 174.153 122.909 174.271 122.909 174.394V177.169C122.909 177.292 122.962 177.41 123.055 177.496C123.149 177.583 123.276 177.632 123.409 177.632H125.909V180.407H115.909C115.595 180.408 115.286 180.476 115.006 180.607C114.727 180.738 114.484 180.928 114.299 181.162C114.113 181.396 113.989 181.667 113.938 181.953C113.886 182.239 113.908 182.532 114.001 182.809L118.569 195.21H137.249L141.816 182.809C141.91 182.532 141.932 182.239 141.88 181.953C141.828 181.667 141.705 181.396 141.519 181.162C141.333 180.928 141.091 180.738 140.811 180.607C140.532 180.476 140.222 180.408 139.909 180.407V180.407Z" fill="white" fill-opacity="0.3"/>
</g>
<g clip-path="url(#clip29)">
<path d="M163.079 201.015L147.675 191.26L149.182 189.224L164.585 198.979L163.079 201.015ZM171.541 176.476C170.166 175.605 168.411 175.421 166.869 175.999L160.42 178.403L161.115 181.832L164.413 181.873C165.13 181.864 165.744 182.432 165.739 183.117C165.738 183.161 165.749 183.213 165.719 183.253C165.604 184.063 164.948 184.709 164.077 184.86L155.181 186.401C154.154 186.588 153.476 187.504 153.678 188.454C153.768 188.9 154.044 189.313 154.451 189.571L163.891 195.55L172.929 183.335C173.728 182.255 174.031 180.926 173.77 179.64C173.51 178.354 172.708 177.216 171.541 176.476Z" fill="white" fill-opacity="0.3"/>
</g>
<g clip-path="url(#clip30)">
<path d="M199.576 195.827H180.909V193.36H199.576V195.827ZM197.122 178.878C198.534 180.566 199.387 182.597 199.576 184.725C199.576 188.129 195.402 190.893 190.242 190.893C185.082 190.893 180.909 188.129 180.909 184.725C180.909 181.789 184.016 176.571 188.189 175.189C187.789 174.745 187.576 174.19 187.576 173.623C187.576 172.969 187.856 172.341 188.357 171.878C188.857 171.416 189.535 171.156 190.242 171.156C190.949 171.156 191.628 171.416 192.128 171.878C192.628 172.341 192.909 172.969 192.909 173.623C192.909 174.19 192.696 174.745 192.296 175.189C193.442 175.597 194.482 176.213 195.362 177.003L189.296 182.615L191.189 184.367L197.122 178.878V178.878Z" fill="white" fill-opacity="0.3"/>
</g>
<path d="M227.576 195.827H246.242V198.294H227.576V195.827ZM243.576 173.623V177.324H240.909V173.623H238.242V177.324H235.576V173.623H232.909V177.324H230.242V173.623H227.576V181.024H230.242V193.36H243.576V181.024H246.242V173.623H243.576Z" fill="white" fill-opacity="0.3"/>
<path d="M264.575 195.827H283.242V198.294H264.575V195.827ZM280.575 173.623V177.324H277.909V173.623H275.242V177.324H272.575V173.623H269.909V177.324H267.242V173.623H264.575V181.024H267.242V193.36H280.575V181.024H283.242V173.623H280.575Z" fill="white" fill-opacity="0.3"/>
<g clip-path="url(#clip31)">
<path d="M15.7901 234.968L2.83243 222.537L4.75194 220.824L17.7097 233.255L15.7901 234.968ZM29.432 212.515C28.275 211.405 26.5971 210.897 24.9603 211.175L18.1201 212.325L18.0517 215.813L21.2732 216.469C21.978 216.594 22.4552 217.266 22.3006 217.935C22.2903 217.978 22.2893 218.03 22.2509 218.065C21.9623 218.836 21.1791 219.347 20.293 219.332L11.2435 219.18C10.197 219.171 9.3332 219.942 9.32364 220.91C9.31475 221.363 9.49439 221.82 9.83684 222.149L17.7781 229.767L29.2951 219.492C30.3133 218.583 30.8997 217.338 30.9254 216.029C30.9511 214.721 30.4139 213.457 29.432 212.515Z" fill="white" fill-opacity="0.3"/>
</g>
<g clip-path="url(#clip32)">
<path d="M53.0093 226.937C54.5291 226.14 54.8503 224.922 51.5752 223.826C51.5752 223.826 49.3543 219.296 49.2747 217.727C49.2237 216.72 49.3048 216.618 49.3048 216.618C52.9854 216.108 51.63 214.74 50.631 214.621C52.0055 213.698 52.9027 212.186 52.9027 210.476C52.9027 207.665 50.4827 205.387 47.4976 205.387C44.5125 205.387 42.0925 207.665 42.0925 210.476C42.0925 212.183 42.9859 213.692 44.3556 214.615C42.1892 215.163 43.5346 216.417 45.5585 216.607C45.7151 216.607 45.7015 216.857 45.7015 217.699C45.7015 218.848 44.2301 222.154 43.4068 223.856C43.4068 223.856 42.2035 224.07 41.3469 224.762C40.5695 225.39 40.6199 226.269 41.9982 226.95C39.5002 229.621 39.9414 232.867 39.9414 232.867C41.2114 235.804 54.5133 235.595 54.9975 232.867C54.9892 231.376 55.0514 229.362 53.0093 226.937V226.937Z" fill="white" fill-opacity="0.3"/>
</g>
<g clip-path="url(#clip33)">
<path d="M92.1208 217.875L83.8945 233.377L81.5008 232.29L89.727 216.787L92.1208 217.875ZM64.6577 213.646C63.9232 215.03 63.9778 216.663 64.8171 217.992L68.3134 223.552L71.8823 222.424L71.4531 219.398C71.3406 218.743 71.8602 218.099 72.593 218.006C72.6406 218 72.6942 217.983 72.742 218.005C73.6245 217.994 74.4096 218.501 74.696 219.277L77.6206 227.202C77.9677 228.115 79.0448 228.604 80.0322 228.283C80.4961 228.137 80.8992 227.825 81.1166 227.415L86.1581 217.915L71.7955 211.391C70.5258 210.815 69.0605 210.728 67.7218 211.151C66.3832 211.574 65.281 212.471 64.6577 213.646Z" fill="white" fill-opacity="0.3"/>
</g>
<path d="M122.372 232.525H103.706V230.058H122.372V232.525ZM119.919 215.576C121.331 217.264 122.183 219.296 122.372 221.423C122.372 224.828 118.199 227.591 113.039 227.591C107.879 227.591 103.706 224.828 103.706 221.423C103.706 218.487 106.812 213.269 110.986 211.888C110.586 211.444 110.372 210.889 110.372 210.321C110.372 209.667 110.653 209.039 111.153 208.577C111.653 208.114 112.332 207.854 113.039 207.854C113.746 207.854 114.424 208.114 114.924 208.577C115.425 209.039 115.706 209.667 115.706 210.321C115.706 210.889 115.492 211.444 115.092 211.888C116.239 212.295 117.279 212.912 118.159 213.701L112.092 219.314L113.986 221.065L119.919 215.576V215.576Z" fill="white" fill-opacity="0.3"/>
<path d="M140.706 230.058H159.372V232.525H140.706V230.058ZM156.706 207.854V211.555H154.039V207.854H151.372V211.555H148.706V207.854H146.039V211.555H143.372V207.854H140.706V215.255H143.372V227.591H156.706V215.255H159.372V207.854H156.706Z" fill="white" fill-opacity="0.3"/>
<g clip-path="url(#clip34)">
<path d="M172.902 219.25L184.156 233.028L182.029 234.516L170.774 220.738L172.902 219.25ZM201.696 217.673L198.504 219.904L196.897 217.936L200.088 215.705L198.48 213.736L195.289 215.968L193.681 213.999L196.872 211.768L195.265 209.8L192.073 212.031L190.466 210.063L193.657 207.832L192.049 205.863L185.667 210.326L187.274 212.294L176.637 219.731L184.676 229.573L195.313 222.135L196.921 224.104L203.303 219.641L201.696 217.673Z" fill="white" fill-opacity="0.3"/>
</g>
<g clip-path="url(#clip35)">
<path d="M223.701 224.144C224.715 222.828 224.45 221.598 220.981 221.884C220.981 221.884 216.901 218.645 216.113 217.254C215.607 216.361 215.634 216.237 215.634 216.237C218.738 214.337 216.885 213.626 215.925 213.908C216.75 212.535 216.873 210.814 216.093 209.263C214.81 206.716 211.577 205.595 208.871 206.761C206.165 207.927 205.011 210.938 206.293 213.486C207.072 215.033 208.571 216.052 210.233 216.354C208.519 217.696 210.311 218.308 212.233 217.69C212.375 217.629 212.476 217.861 212.861 218.624C213.385 219.666 213.56 223.237 213.59 225.102C213.59 225.102 212.597 225.766 212.136 226.728C211.718 227.601 212.165 228.378 213.725 228.457C212.679 231.854 214.56 234.624 214.56 234.624C217.052 236.791 229.015 231.406 228.209 228.743C227.521 227.395 226.659 225.545 223.701 224.144V224.144Z" fill="white" fill-opacity="0.3"/>
</g>
<g clip-path="url(#clip36)">
<path d="M241.577 235.055L228.184 223.024L230.042 221.254L243.434 233.285L241.577 235.055ZM254.414 212.199C253.218 211.125 251.523 210.668 249.897 210.995L243.101 212.353L243.157 215.842L246.4 216.399C247.109 216.503 247.609 217.159 247.479 217.833C247.47 217.876 247.471 217.929 247.434 217.964C247.173 218.744 246.408 219.278 245.522 219.29L236.472 219.413C235.426 219.436 234.59 220.233 234.614 221.201C234.622 221.654 234.817 222.105 235.171 222.423L243.379 229.796L254.525 219.176C255.51 218.237 256.052 216.975 256.031 215.666C256.01 214.358 255.429 213.111 254.414 212.199Z" fill="white" fill-opacity="0.3"/>
</g>
<path d="M26.9088 243.319C27.6161 243.319 28.2944 243.579 28.7945 244.041C29.2946 244.504 29.5755 245.132 29.5755 245.786C29.5755 246.785 28.9088 247.636 28.0155 248.031L25.5755 255.839V261.822H12.2422V255.839L9.80217 248.031C8.90884 247.636 8.24217 246.785 8.24217 245.786C8.24217 245.132 8.52312 244.504 9.02322 244.041C9.52332 243.579 10.2016 243.319 10.9088 243.319C11.6161 243.319 12.2944 243.579 12.7945 244.041C13.2946 244.504 13.5755 245.132 13.5755 245.786C13.5755 246.403 13.3355 246.958 12.9088 247.389L16.6422 251.152L17.3488 246.551C16.6822 246.107 16.2422 245.379 16.2422 244.552C16.2422 243.898 16.5231 243.27 17.0232 242.808C17.5233 242.345 18.2016 242.085 18.9088 242.085C19.6161 242.085 20.2944 242.345 20.7945 242.808C21.2946 243.27 21.5755 243.898 21.5755 244.552C21.5755 245.379 21.1355 246.107 20.4688 246.551L21.1755 251.152L24.8688 247.377C24.4635 246.932 24.2416 246.368 24.2422 245.786C24.2422 245.132 24.5231 244.504 25.0232 244.041C25.5233 243.579 26.2016 243.319 26.9088 243.319V243.319ZM9.57551 264.289H28.2422V266.756H9.57551V264.289Z" fill="white" fill-opacity="0.3"/>
<g clip-path="url(#clip37)">
<path d="M53.0093 261.168C54.5291 260.371 54.8503 259.153 51.5752 258.057C51.5752 258.057 49.3543 253.528 49.2747 251.959C49.2237 250.952 49.3048 250.849 49.3048 250.849C52.9854 250.339 51.63 248.971 50.631 248.852C52.0055 247.929 52.9027 246.417 52.9027 244.707C52.9027 241.896 50.4827 239.618 47.4976 239.618C44.5125 239.618 42.0925 241.896 42.0925 244.707C42.0925 246.414 42.9859 247.923 44.3556 248.846C42.1892 249.394 43.5346 250.648 45.5585 250.838C45.7151 250.838 45.7015 251.088 45.7015 251.93C45.7015 253.079 44.2301 256.385 43.4068 258.087C43.4068 258.087 42.2035 258.302 41.3469 258.993C40.5695 259.621 40.6199 260.5 41.9982 261.181C39.5002 263.852 39.9414 267.098 39.9414 267.098C41.2114 270.035 54.5133 269.826 54.9975 267.098C54.9892 265.607 55.0514 263.593 53.0093 261.168V261.168Z" fill="white" fill-opacity="0.3"/>
</g>
<g clip-path="url(#clip38)">
<path d="M62.3465 251.033L70.5921 266.527L68.1997 267.616L59.9541 252.123L62.3465 251.033ZM90.9457 254.505L87.3571 256.14L86.1792 253.927L89.7678 252.292L88.5898 250.078L85.0012 251.713L83.8233 249.5L87.4119 247.865L86.234 245.652L82.6454 247.286L81.4674 245.073L85.056 243.438L83.8781 241.225L76.7009 244.494L77.8788 246.708L65.9168 252.157L71.8065 263.224L83.7685 257.775L84.9465 259.988L92.1237 256.719L90.9457 254.505Z" fill="white" fill-opacity="0.3"/>
</g>
<path d="M122.372 266.756H103.706V264.289H122.372V266.756ZM114.372 242.085C112.706 242.085 111.146 242.85 110.226 244.133L106.372 249.487L109.039 251.954L111.786 250.264C112.372 249.881 113.226 250.029 113.639 250.597C113.666 250.634 113.706 250.671 113.706 250.72C114.106 251.448 113.959 252.324 113.332 252.903L106.932 258.825C106.199 259.515 106.199 260.626 106.946 261.304C107.292 261.625 107.772 261.822 108.266 261.822H119.706V247.019C119.706 245.711 119.144 244.456 118.143 243.53C117.143 242.605 115.787 242.085 114.372 242.085Z" fill="white" fill-opacity="0.3"/>
<g clip-path="url(#clip39)">
<path d="M147.139 261.168C148.659 260.371 148.98 259.153 145.705 258.057C145.705 258.057 143.484 253.528 143.405 251.959C143.354 250.952 143.435 250.849 143.435 250.849C147.115 250.339 145.76 248.971 144.761 248.852C146.135 247.929 147.033 246.417 147.033 244.707C147.033 241.896 144.613 239.618 141.628 239.618C138.642 239.618 136.222 241.896 136.222 244.707C136.222 246.414 137.116 247.923 138.486 248.846C136.319 249.394 137.665 250.648 139.688 250.838C139.845 250.838 139.831 251.088 139.831 251.93C139.831 253.079 138.36 256.385 137.537 258.087C137.537 258.087 136.334 258.302 135.477 258.993C134.699 259.621 134.75 260.5 136.128 261.181C133.63 263.852 134.071 267.098 134.071 267.098C135.341 270.035 148.643 269.826 149.128 267.098C149.119 265.607 149.181 263.593 147.139 261.168V261.168Z" fill="white" fill-opacity="0.3"/>
</g>
<g clip-path="url(#clip40)">
<path d="M170.169 269.478L154.877 259.575L156.406 257.554L171.698 267.457L170.169 269.478ZM178.907 245.022C177.542 244.138 175.79 243.937 174.241 244.5L167.766 246.842L168.421 250.277L171.719 250.35C172.436 250.348 173.044 250.922 173.031 251.606C173.03 251.651 173.039 251.702 173.009 251.743C172.885 252.551 172.222 253.191 171.35 253.333L162.436 254.789C161.407 254.966 160.719 255.875 160.911 256.827C160.996 257.274 161.267 257.69 161.671 257.952L171.043 264.021L180.218 251.894C181.029 250.822 181.347 249.496 181.101 248.207C180.855 246.918 180.066 245.773 178.907 245.022Z" fill="white" fill-opacity="0.3"/>
</g>
<g clip-path="url(#clip41)">
<path d="M219.052 262.285L197.906 267.899C197.651 267.967 197.436 268.126 197.307 268.34C197.179 268.555 197.147 268.808 197.221 269.044L197.772 270.822C197.845 271.058 198.017 271.257 198.249 271.376C198.481 271.495 198.754 271.524 199.009 271.456L220.156 265.842C220.411 265.774 220.626 265.615 220.755 265.401C220.883 265.186 220.914 264.933 220.841 264.697L220.289 262.919C220.216 262.683 220.045 262.484 219.813 262.365C219.581 262.246 219.307 262.217 219.052 262.285ZM215.048 246.023L205.436 248.575L204.609 245.907L207.012 245.269C207.139 245.235 207.247 245.156 207.311 245.048C207.375 244.941 207.391 244.815 207.354 244.697L206.527 242.029C206.49 241.911 206.404 241.811 206.288 241.752C206.172 241.692 206.036 241.678 205.908 241.712L203.505 242.35L202.816 240.127C202.779 240.009 202.693 239.909 202.577 239.85C202.461 239.79 202.324 239.776 202.197 239.81L199.313 240.575C199.186 240.609 199.078 240.688 199.014 240.796C198.95 240.903 198.934 241.03 198.971 241.147L199.66 243.371L197.257 244.009C197.13 244.043 197.022 244.122 196.958 244.229C196.894 244.336 196.878 244.463 196.915 244.581L197.742 247.249C197.779 247.367 197.865 247.466 197.981 247.526C198.097 247.585 198.233 247.6 198.361 247.566L200.764 246.928L201.591 249.596L191.979 252.148C191.678 252.228 191.401 252.373 191.172 252.57C190.942 252.767 190.765 253.012 190.657 253.284C190.548 253.556 190.51 253.848 190.546 254.136C190.581 254.425 190.69 254.701 190.862 254.943L198.95 265.697L216.905 260.93L217.598 247.845C217.605 247.555 217.539 247.267 217.404 247.005C217.269 246.743 217.069 246.514 216.821 246.337C216.573 246.16 216.283 246.039 215.975 245.984C215.667 245.93 215.35 245.943 215.048 246.023V246.023Z" fill="white" fill-opacity="0.3"/>
</g>
<path d="M28.2422 300.987H9.5755V298.52H28.2422V300.987ZM20.2422 276.316C18.5755 276.316 17.0155 277.081 16.0955 278.364L12.2422 283.718L14.9088 286.185L17.6555 284.495C18.2422 284.112 19.0955 284.26 19.5088 284.828C19.5355 284.865 19.5755 284.902 19.5755 284.951C19.9755 285.679 19.8288 286.555 19.2022 287.134L12.8022 293.056C12.0688 293.746 12.0688 294.857 12.8155 295.535C13.1622 295.856 13.6422 296.053 14.1355 296.053H25.5755V281.25C25.5755 279.942 25.0136 278.687 24.0134 277.761C23.0132 276.836 21.6567 276.316 20.2422 276.316Z" fill="white" fill-opacity="0.3"/>
<g clip-path="url(#clip42)">
<path d="M51.0248 274.288L68.8247 279.49L68.0215 281.842L50.2217 276.641L51.0248 274.288ZM50.6215 300.043C52.2108 300.507 53.9474 300.213 55.2423 299.246L60.6596 295.215L58.9199 292.119L55.7506 292.965C55.0667 293.166 54.3012 292.787 54.0918 292.131C54.0784 292.088 54.0523 292.042 54.0684 291.995C53.9239 291.189 54.3489 290.395 55.1352 290.017L63.1656 286.154C64.0898 285.7 64.4512 284.641 63.9601 283.786C63.734 283.384 63.3405 283.062 62.8701 282.924L51.9613 279.736L47.1422 293.852C46.7162 295.1 46.8434 296.453 47.4959 297.614C48.1484 298.775 49.2727 299.649 50.6215 300.043Z" fill="white" fill-opacity="0.3"/>
</g>
<g clip-path="url(#clip43)">
<path d="M76.6514 289.36L86.6253 274.762L88.8794 276.08L78.9055 290.678L76.6514 289.36ZM93.4479 296.497C91.1509 296.7 88.8397 296.281 86.7949 295.292C83.6842 293.472 83.3895 288.732 86.1466 284.697C88.9036 280.662 93.6581 278.875 96.7687 280.694C99.4511 282.262 102.559 287.48 101.591 291.482C102.21 291.406 102.832 291.536 103.35 291.839C103.948 292.189 104.371 292.744 104.527 293.382C104.682 294.02 104.557 294.69 104.179 295.243C103.801 295.796 103.202 296.187 102.512 296.331C101.822 296.475 101.098 296.36 100.5 296.01C99.982 295.707 99.5888 295.243 99.3968 294.693C98.4122 295.373 97.293 295.856 96.1014 296.123L94.2149 288.379L91.6028 288.924L93.4479 296.497V296.497Z" fill="white" fill-opacity="0.3"/>
</g>
<g clip-path="url(#clip44)">
<path d="M138.909 299.754H116.909C116.644 299.754 116.389 299.851 116.202 300.025C116.014 300.198 115.909 300.434 115.909 300.679V302.529C115.909 302.775 116.014 303.01 116.202 303.183C116.389 303.357 116.644 303.454 116.909 303.454H138.909C139.174 303.454 139.428 303.357 139.616 303.183C139.803 303.01 139.909 302.775 139.909 302.529V300.679C139.909 300.434 139.803 300.198 139.616 300.025C139.428 299.851 139.174 299.754 138.909 299.754ZM139.909 283.101H129.909V280.325H132.409C132.541 280.325 132.669 280.277 132.762 280.19C132.856 280.103 132.909 279.985 132.909 279.863V277.087C132.909 276.964 132.856 276.847 132.762 276.76C132.669 276.673 132.541 276.625 132.409 276.625H129.909V274.312C129.909 274.189 129.856 274.071 129.762 273.985C129.669 273.898 129.541 273.849 129.409 273.849H126.409C126.276 273.849 126.149 273.898 126.055 273.985C125.962 274.071 125.909 274.189 125.909 274.312V276.625H123.409C123.276 276.625 123.149 276.673 123.055 276.76C122.962 276.847 122.909 276.964 122.909 277.087V279.863C122.909 279.985 122.962 280.103 123.055 280.19C123.149 280.277 123.276 280.325 123.409 280.325H125.909V283.101H115.909C115.595 283.101 115.286 283.169 115.006 283.301C114.727 283.432 114.484 283.622 114.299 283.856C114.113 284.089 113.989 284.36 113.938 284.646C113.886 284.932 113.908 285.226 114.001 285.503L118.569 297.903H137.249L141.816 285.503C141.91 285.226 141.932 284.932 141.88 284.646C141.828 284.36 141.705 284.089 141.519 283.856C141.333 283.622 141.091 283.432 140.811 283.301C140.532 283.169 140.222 283.101 139.909 283.101V283.101Z" fill="white" fill-opacity="0.3"/>
</g>
<g clip-path="url(#clip45)">
<path d="M177.127 287.357L163.711 303.488C163.549 303.682 163.478 303.928 163.512 304.171C163.546 304.415 163.684 304.635 163.894 304.785L165.479 305.913C165.689 306.063 165.955 306.129 166.218 306.098C166.481 306.066 166.72 305.939 166.881 305.744L180.298 289.613C180.459 289.419 180.531 289.173 180.497 288.93C180.462 288.686 180.325 288.466 180.115 288.316L178.53 287.188C178.32 287.038 178.054 286.972 177.791 287.003C177.528 287.035 177.289 287.162 177.127 287.357ZM163.472 276.468L157.373 283.8L154.996 282.108L156.52 280.274C156.601 280.177 156.637 280.054 156.62 279.933C156.603 279.811 156.534 279.701 156.429 279.626L154.051 277.933C153.946 277.858 153.813 277.825 153.682 277.841C153.55 277.857 153.431 277.92 153.35 278.018L151.826 279.851L149.844 278.44C149.739 278.365 149.606 278.332 149.475 278.348C149.343 278.364 149.224 278.428 149.143 278.525L147.314 280.724C147.233 280.822 147.197 280.945 147.214 281.066C147.231 281.188 147.3 281.298 147.405 281.373L149.386 282.784L147.862 284.617C147.781 284.714 147.745 284.837 147.762 284.959C147.779 285.08 147.848 285.191 147.953 285.265L150.331 286.958C150.436 287.033 150.569 287.066 150.7 287.05C150.832 287.034 150.951 286.971 151.032 286.873L152.556 285.04L154.934 286.733L148.836 294.065C148.645 294.295 148.515 294.564 148.457 294.849C148.398 295.134 148.413 295.427 148.5 295.706C148.587 295.985 148.744 296.241 148.958 296.453C149.171 296.665 149.436 296.828 149.73 296.929L163.138 301.142L174.53 287.445L166.693 276.534C166.512 276.297 166.274 276.102 165.998 275.965C165.721 275.829 165.414 275.754 165.1 275.748C164.787 275.741 164.476 275.803 164.193 275.928C163.91 276.053 163.663 276.238 163.472 276.468V276.468Z" fill="white" fill-opacity="0.3"/>
</g>
<defs>
<clipPath id="clip0">
<rect width="28" height="29.6053" fill="white" transform="translate(2.90884)"/>
</clipPath>
<clipPath id="clip1">
<rect width="15.13" height="29.6053" fill="white" transform="translate(72.9089)"/>
</clipPath>
<clipPath id="clip2">
<rect width="28" height="29.6053" fill="white" transform="translate(191.365 -2.76117) rotate(73.856)"/>
</clipPath>
<clipPath id="clip3">
<rect width="15.13" height="29.6053" fill="white" transform="translate(200.039)"/>
</clipPath>
<clipPath id="clip4">
<rect width="28" height="29.6053" fill="white" transform="translate(254.542 15.0338) rotate(134.054)"/>
</clipPath>
<clipPath id="clip5">
<rect width="15.13" height="29.6053" fill="white" transform="translate(290.169)"/>
</clipPath>
<clipPath id="clip6">
<rect width="27.9197" height="29.7042" fill="white" transform="matrix(0.982742 0.184979 -0.214777 0.976663 6.37978 31.9461)"/>
</clipPath>
<clipPath id="clip7">
<rect width="28" height="29.6053" fill="white" transform="translate(109.909 34.2311)"/>
</clipPath>
<clipPath id="clip8">
<rect width="28" height="29.6053" fill="white" transform="translate(216.909 34.2311)"/>
</clipPath>
<clipPath id="clip9">
<rect width="31.1738" height="30.4741" fill="white" transform="matrix(0.825163 0.564896 -0.624607 0.78094 262.564 28.3296)"/>
</clipPath>
<clipPath id="clip10">
<rect width="30.6696" height="30.9814" fill="white" transform="matrix(0.688032 -0.725681 0.776484 0.630137 33.3297 84.6318)"/>
</clipPath>
<clipPath id="clip11">
<rect width="26.1584" height="31.7292" fill="white" transform="matrix(0.366099 -0.930576 0.947712 0.319126 71.0855 90.3734)"/>
</clipPath>
<clipPath id="clip12">
<rect width="15.13" height="29.6053" fill="white" transform="translate(109.909 68.4623)"/>
</clipPath>
<clipPath id="clip13">
<rect width="30.5351" height="31.114" fill="white" transform="matrix(0.645197 0.764016 -0.81045 0.585808 185.796 62.4869)"/>
</clipPath>
<clipPath id="clip14">
<rect width="31.5733" height="30.0599" fill="white" transform="matrix(0.915608 -0.402073 0.456475 0.889736 198.724 76.2396)"/>
</clipPath>
<clipPath id="clip15">
<rect width="15.13" height="29.6053" fill="white" transform="translate(241.039 68.4623)"/>
</clipPath>
<clipPath id="clip16">
<rect width="15.13" height="29.6053" fill="white" transform="translate(298.169 68.4623)"/>
</clipPath>
<clipPath id="clip17">
<rect width="15.13" height="29.6053" fill="white" transform="translate(2.90884 102.693)"/>
</clipPath>
<clipPath id="clip18">
<rect width="28" height="29.6053" fill="white" transform="translate(23.0389 102.693)"/>
</clipPath>
<clipPath id="clip19">
<rect width="30.4892" height="31.159" fill="white" transform="matrix(0.629787 0.776768 -0.821552 0.570134 149.237 96.7722)"/>
</clipPath>
<clipPath id="clip20">
<rect width="31.4228" height="30.2173" fill="white" transform="matrix(0.883022 0.469332 -0.527533 0.849534 251.136 97.2869)"/>
</clipPath>
<clipPath id="clip21">
<rect width="30.1401" height="31.4968" fill="white" transform="matrix(0.49409 -0.869411 0.899255 0.437424 34.3011 157.941)"/>
</clipPath>
<clipPath id="clip22">
<rect width="26.9462" height="30.8561" fill="white" transform="matrix(0.725426 0.6883 -0.742518 0.669826 92.5907 132.12)"/>
</clipPath>
<clipPath id="clip23">
<rect width="15.13" height="29.6053" fill="white" transform="translate(183.909 136.925)"/>
</clipPath>
<clipPath id="clip24">
<rect width="30.3345" height="31.3096" fill="white" transform="matrix(0.574188 0.818724 -0.857386 0.514674 224.752 131.252)"/>
</clipPath>
<clipPath id="clip25">
<rect width="29.7032" height="31.9092" fill="white" transform="matrix(0.213711 0.976897 -0.982917 0.18405 31.4169 168.514)"/>
</clipPath>
<clipPath id="clip26">
<rect width="32" height="29.6053" fill="white" transform="translate(39.9089 171.156)"/>
</clipPath>
<clipPath id="clip27">
<rect width="32" height="29.6053" fill="white" transform="translate(76.9089 171.156)"/>
</clipPath>
<clipPath id="clip28">
<rect width="28" height="29.6053" fill="white" transform="translate(113.909 171.156)"/>
</clipPath>
<clipPath id="clip29">
<rect width="31.2558" height="30.39" fill="white" transform="matrix(0.844816 0.535057 -0.594814 0.803864 158.744 165.382)"/>
</clipPath>
<clipPath id="clip30">
<rect width="32" height="29.6053" fill="white" transform="translate(183.909 171.156)"/>
</clipPath>
<clipPath id="clip31">
<rect width="30.7825" height="30.8693" fill="white" transform="matrix(0.721619 0.692291 -0.746184 0.66574 19.3193 199.259)"/>
</clipPath>
<clipPath id="clip32">
<rect width="15.13" height="29.6053" fill="white" transform="translate(39.9089 205.387)"/>
</clipPath>
<clipPath id="clip33">
<rect width="30.0853" height="31.5492" fill="white" transform="matrix(0.468737 -0.883338 0.910487 0.413538 54.6253 226.954)"/>
</clipPath>
<clipPath id="clip34">
<rect width="30.4976" height="31.1508" fill="white" transform="matrix(0.632618 0.774464 -0.819553 0.573003 190.157 199.455)"/>
</clipPath>
<clipPath id="clip35">
<rect width="14.9345" height="30.0461" fill="white" transform="matrix(0.918388 -0.39568 0.449612 0.893224 201.991 209.725)"/>
</clipPath>
<clipPath id="clip36">
<rect width="30.8611" height="30.7907" fill="white" transform="matrix(0.743915 0.668274 -0.723981 0.689819 243.836 199.258)"/>
</clipPath>
<clipPath id="clip37">
<rect width="15.13" height="29.6053" fill="white" transform="translate(39.9089 239.618)"/>
</clipPath>
<clipPath id="clip38">
<rect width="30.0875" height="31.547" fill="white" transform="matrix(0.469803 0.882771 -0.910032 0.414538 83.3257 234.602)"/>
</clipPath>
<clipPath id="clip39">
<rect width="15.13" height="29.6053" fill="white" transform="translate(134.039 239.618)"/>
</clipPath>
<clipPath id="clip40">
<rect width="31.2328" height="30.4136" fill="white" transform="matrix(0.839366 0.543566 -0.603359 0.79747 166.236 233.805)"/>
</clipPath>
<clipPath id="clip41">
<rect width="27.8461" height="29.7943" fill="white" transform="matrix(0.966512 -0.256622 0.296276 0.955102 187.298 243.765)"/>
</clipPath>
<clipPath id="clip42">
<rect width="31.7902" height="29.8305" fill="white" transform="matrix(-0.959856 -0.280492 0.323098 -0.946366 66.3468 307.225)"/>
</clipPath>
<clipPath id="clip43">
<rect width="30.3083" height="31.335" fill="white" transform="matrix(-0.564138 0.825681 -0.863225 -0.50482 114.982 284.049)"/>
</clipPath>
<clipPath id="clip44">
<rect width="28" height="29.6053" fill="white" transform="translate(113.909 273.849)"/>
</clipPath>
<clipPath id="clip45">
<rect width="26.7031" height="31.131" fill="white" transform="matrix(0.639449 -0.768833 0.814655 0.579945 139.691 289.89)"/>
</clipPath>
</defs>
</svg>
